%TF.GenerationSoftware,KiCad,Pcbnew,9.0.2*%
%TF.CreationDate,2025-07-05T18:40:33-07:00*%
%TF.ProjectId,ddi_1.2,6464695f-312e-4322-9e6b-696361645f70,rev?*%
%TF.SameCoordinates,Original*%
%TF.FileFunction,Soldermask,Bot*%
%TF.FilePolarity,Negative*%
%FSLAX46Y46*%
G04 Gerber Fmt 4.6, Leading zero omitted, Abs format (unit mm)*
G04 Created by KiCad (PCBNEW 9.0.2) date 2025-07-05 18:40:33*
%MOMM*%
%LPD*%
G01*
G04 APERTURE LIST*
G04 Aperture macros list*
%AMRoundRect*
0 Rectangle with rounded corners*
0 $1 Rounding radius*
0 $2 $3 $4 $5 $6 $7 $8 $9 X,Y pos of 4 corners*
0 Add a 4 corners polygon primitive as box body*
4,1,4,$2,$3,$4,$5,$6,$7,$8,$9,$2,$3,0*
0 Add four circle primitives for the rounded corners*
1,1,$1+$1,$2,$3*
1,1,$1+$1,$4,$5*
1,1,$1+$1,$6,$7*
1,1,$1+$1,$8,$9*
0 Add four rect primitives between the rounded corners*
20,1,$1+$1,$2,$3,$4,$5,0*
20,1,$1+$1,$4,$5,$6,$7,0*
20,1,$1+$1,$6,$7,$8,$9,0*
20,1,$1+$1,$8,$9,$2,$3,0*%
G04 Aperture macros list end*
%ADD10C,1.549400*%
%ADD11RoundRect,0.102000X-0.679000X0.679000X-0.679000X-0.679000X0.679000X-0.679000X0.679000X0.679000X0*%
%ADD12C,1.562000*%
G04 APERTURE END LIST*
D10*
%TO.C,SW7*%
X203200000Y-84800000D03*
X197199997Y-84800000D03*
X203200000Y-92799999D03*
X197199997Y-92799999D03*
%TD*%
%TO.C,SW17*%
X96800000Y-115200000D03*
X102800003Y-115200000D03*
X96800000Y-107200001D03*
X102800003Y-107200001D03*
%TD*%
%TO.C,SW20*%
X96800000Y-81600000D03*
X102800003Y-81600000D03*
X96800000Y-73600001D03*
X102800003Y-73600001D03*
%TD*%
%TO.C,SW5*%
X168400000Y-46800000D03*
X168400000Y-52800003D03*
X176399999Y-46800000D03*
X176399999Y-52800003D03*
%TD*%
%TO.C,SW6*%
X203200000Y-73600000D03*
X197199997Y-73600000D03*
X203200000Y-81599999D03*
X197199997Y-81599999D03*
%TD*%
%TO.C,SW13*%
X153999999Y-153200000D03*
X153999999Y-147199997D03*
X146000000Y-153200000D03*
X146000000Y-147199997D03*
%TD*%
%TO.C,SW9*%
X203200000Y-107200000D03*
X197199997Y-107200000D03*
X203200000Y-115199999D03*
X197199997Y-115199999D03*
%TD*%
%TO.C,SW8*%
X203200000Y-96200000D03*
X197199997Y-96200000D03*
X203200000Y-104199999D03*
X197199997Y-104199999D03*
%TD*%
%TO.C,SW12*%
X165199999Y-153200000D03*
X165199999Y-147199997D03*
X157200000Y-153200000D03*
X157200000Y-147199997D03*
%TD*%
%TO.C,SW1*%
X123600000Y-46800000D03*
X123600000Y-52800003D03*
X131599999Y-46800000D03*
X131599999Y-52800003D03*
%TD*%
%TO.C,SW18*%
X96800000Y-104000000D03*
X102800003Y-104000000D03*
X96800000Y-96000001D03*
X102800003Y-96000001D03*
%TD*%
%TO.C,SW15*%
X131699999Y-153200000D03*
X131699999Y-147199997D03*
X123700000Y-153200000D03*
X123700000Y-147199997D03*
%TD*%
%TO.C,SW2*%
X134800000Y-46800000D03*
X134800000Y-52800003D03*
X142799999Y-46800000D03*
X142799999Y-52800003D03*
%TD*%
%TO.C,SW3*%
X146000000Y-46800000D03*
X146000000Y-52800003D03*
X153999999Y-46800000D03*
X153999999Y-52800003D03*
%TD*%
%TO.C,SW11*%
X176399999Y-153200000D03*
X176399999Y-147199997D03*
X168400000Y-153200000D03*
X168400000Y-147199997D03*
%TD*%
%TO.C,SW16*%
X96800000Y-126200000D03*
X102800003Y-126200000D03*
X96800000Y-118200001D03*
X102800003Y-118200001D03*
%TD*%
%TO.C,SW14*%
X142799999Y-153200000D03*
X142799999Y-147199997D03*
X134800000Y-153200000D03*
X134800000Y-147199997D03*
%TD*%
%TO.C,SW19*%
X96800000Y-92800000D03*
X102800003Y-92800000D03*
X96800000Y-84800001D03*
X102800003Y-84800001D03*
%TD*%
%TO.C,SW4*%
X157200000Y-46800000D03*
X157200000Y-52800003D03*
X165199999Y-46800000D03*
X165199999Y-52800003D03*
%TD*%
%TO.C,SW10*%
X203200000Y-118400000D03*
X197199997Y-118400000D03*
X203200000Y-126399999D03*
X197199997Y-126399999D03*
%TD*%
D11*
%TO.C,U1*%
X143760000Y-24760000D03*
D12*
X146300000Y-24760000D03*
X148840000Y-24760000D03*
X151380000Y-24760000D03*
X153920000Y-24760000D03*
X156460000Y-24760000D03*
X159000000Y-24760000D03*
X159000000Y-40000000D03*
X156460000Y-40000000D03*
X153920000Y-40000000D03*
X151380000Y-40000000D03*
X148840000Y-40000000D03*
X146300000Y-40000000D03*
X143760000Y-40000000D03*
%TD*%
M02*
