M48
; DRILL file {KiCad 9.0.2} date 2025-07-05T18:40:31-0700
; FORMAT={-:-/ absolute / inch / decimal}
; #@! TF.CreationDate,2025-07-05T18:40:31-07:00
; #@! TF.GenerationSoftware,Kicad,Pcbnew,9.0.2
; #@! TF.FileFunction,Plated,1,4,PTH
FMAT,2
INCH
; #@! TA.AperFunction,Plated,PTH,ComponentDrill
T1C0.0335
; #@! TA.AperFunction,Plated,PTH,ComponentDrill
T2C0.0410
%
G90
G05
T1
X5.6598Y-0.9748
X5.6598Y-1.5748
X5.7598Y-0.9748
X5.7598Y-1.5748
X5.8598Y-0.9748
X5.8598Y-1.5748
X5.9598Y-0.9748
X5.9598Y-1.5748
X6.0598Y-0.9748
X6.0598Y-1.5748
X6.1598Y-0.9748
X6.1598Y-1.5748
X6.2598Y-0.9748
X6.2598Y-1.5748
T2
X3.811Y-2.8976
X3.811Y-3.2126
X3.811Y-3.3386
X3.811Y-3.6535
X3.811Y-3.7795
X3.811Y-4.0945
X3.811Y-4.2205
X3.811Y-4.5354
X3.811Y-4.6535
X3.811Y-4.9685
X4.0472Y-2.8976
X4.0472Y-3.2126
X4.0472Y-3.3386
X4.0472Y-3.6535
X4.0472Y-3.7795
X4.0472Y-4.0945
X4.0472Y-4.2205
X4.0472Y-4.5354
X4.0472Y-4.6535
X4.0472Y-4.9685
X4.8661Y-1.8425
X4.8661Y-2.0787
X4.8701Y-5.7953
X4.8701Y-6.0315
X5.1811Y-1.8425
X5.1811Y-2.0787
X5.185Y-5.7953
X5.185Y-6.0315
X5.3071Y-1.8425
X5.3071Y-2.0787
X5.3071Y-5.7953
X5.3071Y-6.0315
X5.622Y-1.8425
X5.622Y-2.0787
X5.622Y-5.7953
X5.622Y-6.0315
X5.748Y-1.8425
X5.748Y-2.0787
X5.748Y-5.7953
X5.748Y-6.0315
X6.063Y-1.8425
X6.063Y-2.0787
X6.063Y-5.7953
X6.063Y-6.0315
X6.189Y-1.8425
X6.189Y-2.0787
X6.189Y-5.7953
X6.189Y-6.0315
X6.5039Y-1.8425
X6.5039Y-2.0787
X6.5039Y-5.7953
X6.5039Y-6.0315
X6.6299Y-1.8425
X6.6299Y-2.0787
X6.6299Y-5.7953
X6.6299Y-6.0315
X6.9449Y-1.8425
X6.9449Y-2.0787
X6.9449Y-5.7953
X6.9449Y-6.0315
X7.7638Y-2.8976
X7.7638Y-3.2126
X7.7638Y-3.3386
X7.7638Y-3.6535
X7.7638Y-3.7874
X7.7638Y-4.1024
X7.7638Y-4.2205
X7.7638Y-4.5354
X7.7638Y-4.6614
X7.7638Y-4.9764
X8.0Y-2.8976
X8.0Y-3.2126
X8.0Y-3.3386
X8.0Y-3.6535
X8.0Y-3.7874
X8.0Y-4.1024
X8.0Y-4.2205
X8.0Y-4.5354
X8.0Y-4.6614
X8.0Y-4.9764
M30
