M48
; DRILL file {KiCad 9.0.2-9.0.2-0~ubuntu22.04.1} date 2025-06-17T17:34:01-0700
; FORMAT={-:-/ absolute / metric / decimal}
; #@! TF.CreationDate,2025-06-17T17:34:01-07:00
; #@! TF.GenerationSoftware,Kicad,Pcbnew,9.0.2-9.0.2-0~ubuntu22.04.1
; #@! TF.FileFunction,Plated,1,4,PTH
FMAT,2
METRIC
; #@! TA.AperFunction,Plated,PTH,ComponentDrill
T1C0.850
; #@! TA.AperFunction,Plated,PTH,ComponentDrill
T2C1.041
%
G90
G05
T1
X143.76Y-24.76
X143.76Y-40.0
X146.3Y-24.76
X146.3Y-40.0
X148.84Y-24.76
X148.84Y-40.0
X151.38Y-24.76
X151.38Y-40.0
X153.92Y-24.76
X153.92Y-40.0
X156.46Y-24.76
X156.46Y-40.0
X159.0Y-24.76
X159.0Y-40.0
T2
X96.8Y-73.6
X96.8Y-81.6
X96.8Y-84.8
X96.8Y-92.8
X96.8Y-96.0
X96.8Y-104.0
X96.8Y-107.2
X96.8Y-115.2
X96.8Y-118.2
X96.8Y-126.2
X102.8Y-73.6
X102.8Y-81.6
X102.8Y-84.8
X102.8Y-92.8
X102.8Y-96.0
X102.8Y-104.0
X102.8Y-107.2
X102.8Y-115.2
X102.8Y-118.2
X102.8Y-126.2
X123.6Y-46.8
X123.6Y-52.8
X123.7Y-147.2
X123.7Y-153.2
X131.6Y-46.8
X131.6Y-52.8
X131.7Y-147.2
X131.7Y-153.2
X134.8Y-46.8
X134.8Y-52.8
X134.8Y-147.2
X134.8Y-153.2
X142.8Y-46.8
X142.8Y-52.8
X142.8Y-147.2
X142.8Y-153.2
X146.0Y-46.8
X146.0Y-52.8
X146.0Y-147.2
X146.0Y-153.2
X154.0Y-46.8
X154.0Y-52.8
X154.0Y-147.2
X154.0Y-153.2
X157.2Y-46.8
X157.2Y-52.8
X157.2Y-147.2
X157.2Y-153.2
X165.2Y-46.8
X165.2Y-52.8
X165.2Y-147.2
X165.2Y-153.2
X168.4Y-46.8
X168.4Y-52.8
X168.4Y-147.2
X168.4Y-153.2
X176.4Y-46.8
X176.4Y-52.8
X176.4Y-147.2
X176.4Y-153.2
X197.2Y-73.6
X197.2Y-81.6
X197.2Y-84.8
X197.2Y-92.8
X197.2Y-96.2
X197.2Y-104.2
X197.2Y-107.2
X197.2Y-115.2
X197.2Y-118.4
X197.2Y-126.4
X203.2Y-73.6
X203.2Y-81.6
X203.2Y-84.8
X203.2Y-92.8
X203.2Y-96.2
X203.2Y-104.2
X203.2Y-107.2
X203.2Y-115.2
X203.2Y-118.4
X203.2Y-126.4
M30
