%TF.GenerationSoftware,KiCad,Pcbnew,9.0.2-9.0.2-0~ubuntu22.04.1*%
%TF.CreationDate,2025-06-17T17:34:02-07:00*%
%TF.ProjectId,ddi_1.2,6464695f-312e-4322-9e6b-696361645f70,rev?*%
%TF.SameCoordinates,Original*%
%TF.FileFunction,Copper,L4,Bot*%
%TF.FilePolarity,Positive*%
%FSLAX46Y46*%
G04 Gerber Fmt 4.6, Leading zero omitted, Abs format (unit mm)*
G04 Created by KiCad (PCBNEW 9.0.2-9.0.2-0~ubuntu22.04.1) date 2025-06-17 17:34:02*
%MOMM*%
%LPD*%
G01*
G04 APERTURE LIST*
%TA.AperFunction,ComponentPad*%
%ADD10C,1.549400*%
%TD*%
%TA.AperFunction,ComponentPad*%
%ADD11R,1.358000X1.358000*%
%TD*%
%TA.AperFunction,ComponentPad*%
%ADD12C,1.358000*%
%TD*%
G04 APERTURE END LIST*
D10*
%TO.P,SW7,1,a*%
%TO.N,/B2*%
X203200000Y-84800000D03*
%TO.P,SW7,2,b*%
%TO.N,unconnected-(SW7-b-Pad2)*%
X197199997Y-84800000D03*
%TO.P,SW7,3,c*%
%TO.N,unconnected-(SW7-c-Pad3)*%
X203200000Y-92799999D03*
%TO.P,SW7,4,d*%
%TO.N,/X2*%
X197199997Y-92799999D03*
%TD*%
%TO.P,SW17,1,a*%
%TO.N,/B4*%
X96800000Y-115200000D03*
%TO.P,SW17,2,b*%
%TO.N,unconnected-(SW17-b-Pad2)*%
X102800003Y-115200000D03*
%TO.P,SW17,3,c*%
%TO.N,unconnected-(SW17-c-Pad3)*%
X96800000Y-107200001D03*
%TO.P,SW17,4,d*%
%TO.N,/X2*%
X102800003Y-107200001D03*
%TD*%
%TO.P,SW20,1,a*%
%TO.N,/B4*%
X96800000Y-81600000D03*
%TO.P,SW20,2,b*%
%TO.N,unconnected-(SW20-b-Pad2)*%
X102800003Y-81600000D03*
%TO.P,SW20,3,c*%
%TO.N,unconnected-(SW20-c-Pad3)*%
X96800000Y-73600001D03*
%TO.P,SW20,4,d*%
%TO.N,/X5*%
X102800003Y-73600001D03*
%TD*%
%TO.P,SW5,1,a*%
%TO.N,/B1*%
X168400000Y-46800000D03*
%TO.P,SW5,2,b*%
%TO.N,unconnected-(SW5-b-Pad2)*%
X168400000Y-52800003D03*
%TO.P,SW5,3,c*%
%TO.N,unconnected-(SW5-c-Pad3)*%
X176399999Y-46800000D03*
%TO.P,SW5,4,d*%
%TO.N,/X5*%
X176399999Y-52800003D03*
%TD*%
%TO.P,SW6,1,a*%
%TO.N,/B2*%
X203200000Y-73600000D03*
%TO.P,SW6,2,b*%
%TO.N,unconnected-(SW6-b-Pad2)*%
X197199997Y-73600000D03*
%TO.P,SW6,3,c*%
%TO.N,unconnected-(SW6-c-Pad3)*%
X203200000Y-81599999D03*
%TO.P,SW6,4,d*%
%TO.N,/X1*%
X197199997Y-81599999D03*
%TD*%
%TO.P,SW13,1,a*%
%TO.N,/B3*%
X153999999Y-153200000D03*
%TO.P,SW13,2,b*%
%TO.N,unconnected-(SW13-b-Pad2)*%
X153999999Y-147199997D03*
%TO.P,SW13,3,c*%
%TO.N,unconnected-(SW13-c-Pad3)*%
X146000000Y-153200000D03*
%TO.P,SW13,4,d*%
%TO.N,/X3*%
X146000000Y-147199997D03*
%TD*%
%TO.P,SW9,1,a*%
%TO.N,/B2*%
X203200000Y-107200000D03*
%TO.P,SW9,2,b*%
%TO.N,unconnected-(SW9-b-Pad2)*%
X197199997Y-107200000D03*
%TO.P,SW9,3,c*%
%TO.N,unconnected-(SW9-c-Pad3)*%
X203200000Y-115199999D03*
%TO.P,SW9,4,d*%
%TO.N,/X4*%
X197199997Y-115199999D03*
%TD*%
%TO.P,SW8,1,a*%
%TO.N,/B2*%
X203200000Y-96200000D03*
%TO.P,SW8,2,b*%
%TO.N,unconnected-(SW8-b-Pad2)*%
X197199997Y-96200000D03*
%TO.P,SW8,3,c*%
%TO.N,unconnected-(SW8-c-Pad3)*%
X203200000Y-104199999D03*
%TO.P,SW8,4,d*%
%TO.N,/X3*%
X197199997Y-104199999D03*
%TD*%
%TO.P,SW12,1,a*%
%TO.N,/B3*%
X165199999Y-153200000D03*
%TO.P,SW12,2,b*%
%TO.N,unconnected-(SW12-b-Pad2)*%
X165199999Y-147199997D03*
%TO.P,SW12,3,c*%
%TO.N,unconnected-(SW12-c-Pad3)*%
X157200000Y-153200000D03*
%TO.P,SW12,4,d*%
%TO.N,/X2*%
X157200000Y-147199997D03*
%TD*%
%TO.P,SW1,1,a*%
%TO.N,/B1*%
X123600000Y-46800000D03*
%TO.P,SW1,2,b*%
%TO.N,unconnected-(SW1-b-Pad2)*%
X123600000Y-52800003D03*
%TO.P,SW1,3,c*%
%TO.N,unconnected-(SW1-c-Pad3)*%
X131599999Y-46800000D03*
%TO.P,SW1,4,d*%
%TO.N,/X1*%
X131599999Y-52800003D03*
%TD*%
%TO.P,SW18,1,a*%
%TO.N,/B4*%
X96800000Y-104000000D03*
%TO.P,SW18,2,b*%
%TO.N,unconnected-(SW18-b-Pad2)*%
X102800003Y-104000000D03*
%TO.P,SW18,3,c*%
%TO.N,unconnected-(SW18-c-Pad3)*%
X96800000Y-96000001D03*
%TO.P,SW18,4,d*%
%TO.N,/X3*%
X102800003Y-96000001D03*
%TD*%
%TO.P,SW15,1,a*%
%TO.N,/B3*%
X131699999Y-153200000D03*
%TO.P,SW15,2,b*%
%TO.N,unconnected-(SW15-b-Pad2)*%
X131699999Y-147199997D03*
%TO.P,SW15,3,c*%
%TO.N,unconnected-(SW15-c-Pad3)*%
X123700000Y-153200000D03*
%TO.P,SW15,4,d*%
%TO.N,/X5*%
X123700000Y-147199997D03*
%TD*%
%TO.P,SW2,1,a*%
%TO.N,/B1*%
X134800000Y-46800000D03*
%TO.P,SW2,2,b*%
%TO.N,unconnected-(SW2-b-Pad2)*%
X134800000Y-52800003D03*
%TO.P,SW2,3,c*%
%TO.N,unconnected-(SW2-c-Pad3)*%
X142799999Y-46800000D03*
%TO.P,SW2,4,d*%
%TO.N,/X2*%
X142799999Y-52800003D03*
%TD*%
%TO.P,SW3,1,a*%
%TO.N,/B1*%
X146000000Y-46800000D03*
%TO.P,SW3,2,b*%
%TO.N,unconnected-(SW3-b-Pad2)*%
X146000000Y-52800003D03*
%TO.P,SW3,3,c*%
%TO.N,unconnected-(SW3-c-Pad3)*%
X153999999Y-46800000D03*
%TO.P,SW3,4,d*%
%TO.N,/X3*%
X153999999Y-52800003D03*
%TD*%
%TO.P,SW11,1,a*%
%TO.N,/B3*%
X176399999Y-153200000D03*
%TO.P,SW11,2,b*%
%TO.N,unconnected-(SW11-b-Pad2)*%
X176399999Y-147199997D03*
%TO.P,SW11,3,c*%
%TO.N,unconnected-(SW11-c-Pad3)*%
X168400000Y-153200000D03*
%TO.P,SW11,4,d*%
%TO.N,/X1*%
X168400000Y-147199997D03*
%TD*%
%TO.P,SW16,1,a*%
%TO.N,/B4*%
X96800000Y-126200000D03*
%TO.P,SW16,2,b*%
%TO.N,unconnected-(SW16-b-Pad2)*%
X102800003Y-126200000D03*
%TO.P,SW16,3,c*%
%TO.N,unconnected-(SW16-c-Pad3)*%
X96800000Y-118200001D03*
%TO.P,SW16,4,d*%
%TO.N,/X1*%
X102800003Y-118200001D03*
%TD*%
%TO.P,SW14,1,a*%
%TO.N,/B3*%
X142799999Y-153200000D03*
%TO.P,SW14,2,b*%
%TO.N,unconnected-(SW14-b-Pad2)*%
X142799999Y-147199997D03*
%TO.P,SW14,3,c*%
%TO.N,unconnected-(SW14-c-Pad3)*%
X134800000Y-153200000D03*
%TO.P,SW14,4,d*%
%TO.N,/X4*%
X134800000Y-147199997D03*
%TD*%
%TO.P,SW19,1,a*%
%TO.N,/B4*%
X96800000Y-92800000D03*
%TO.P,SW19,2,b*%
%TO.N,unconnected-(SW19-b-Pad2)*%
X102800003Y-92800000D03*
%TO.P,SW19,3,c*%
%TO.N,unconnected-(SW19-c-Pad3)*%
X96800000Y-84800001D03*
%TO.P,SW19,4,d*%
%TO.N,/X4*%
X102800003Y-84800001D03*
%TD*%
%TO.P,SW4,1,a*%
%TO.N,/B1*%
X157200000Y-46800000D03*
%TO.P,SW4,2,b*%
%TO.N,unconnected-(SW4-b-Pad2)*%
X157200000Y-52800003D03*
%TO.P,SW4,3,c*%
%TO.N,unconnected-(SW4-c-Pad3)*%
X165199999Y-46800000D03*
%TO.P,SW4,4,d*%
%TO.N,/X4*%
X165199999Y-52800003D03*
%TD*%
%TO.P,SW10,1,a*%
%TO.N,/B2*%
X203200000Y-118400000D03*
%TO.P,SW10,2,b*%
%TO.N,unconnected-(SW10-b-Pad2)*%
X197199997Y-118400000D03*
%TO.P,SW10,3,c*%
%TO.N,unconnected-(SW10-c-Pad3)*%
X203200000Y-126399999D03*
%TO.P,SW10,4,d*%
%TO.N,/X5*%
X197199997Y-126399999D03*
%TD*%
D11*
%TO.P,U1,1,PA02_A0_D0*%
%TO.N,/B1*%
X143760000Y-24760000D03*
D12*
%TO.P,U1,2,PA4_A1_D1*%
%TO.N,/B2*%
X146300000Y-24760000D03*
%TO.P,U1,3,PA10_A2_D2*%
%TO.N,/B3*%
X148840000Y-24760000D03*
%TO.P,U1,4,PA11_A3_D3*%
%TO.N,/B4*%
X151380000Y-24760000D03*
%TO.P,U1,5,PA8_A4_D4_SDA*%
%TO.N,unconnected-(U1-PA8_A4_D4_SDA-Pad5)*%
X153920000Y-24760000D03*
%TO.P,U1,6,PA9_A5_D5_SCL*%
%TO.N,unconnected-(U1-PA9_A5_D5_SCL-Pad6)*%
X156460000Y-24760000D03*
%TO.P,U1,7,PB08_A6_D6_TX*%
%TO.N,/X1*%
X159000000Y-24760000D03*
%TO.P,U1,8,PB09_A7_D7_RX*%
%TO.N,/X2*%
X159000000Y-40000000D03*
%TO.P,U1,9,PA7_A8_D8_SCK*%
%TO.N,/X3*%
X156460000Y-40000000D03*
%TO.P,U1,10,PA5_A9_D9_MISO*%
%TO.N,/X4*%
X153920000Y-40000000D03*
%TO.P,U1,11,PA6_A10_D10_MOSI*%
%TO.N,/X5*%
X151380000Y-40000000D03*
%TO.P,U1,12,3V3*%
%TO.N,unconnected-(U1-3V3-Pad12)*%
X148840000Y-40000000D03*
%TO.P,U1,13,GND*%
%TO.N,unconnected-(U1-GND-Pad13)*%
X146300000Y-40000000D03*
%TO.P,U1,14,5V*%
%TO.N,unconnected-(U1-5V-Pad14)*%
X143760000Y-40000000D03*
%TD*%
M02*
