%TF.GenerationSoftware,KiCad,Pcbnew,9.0.2-9.0.2-0~ubuntu22.04.1*%
%TF.CreationDate,2025-06-17T17:34:02-07:00*%
%TF.ProjectId,ddi_1.2,6464695f-312e-4322-9e6b-696361645f70,rev?*%
%TF.SameCoordinates,Original*%
%TF.FileFunction,Copper,L3,Inr*%
%TF.FilePolarity,Positive*%
%FSLAX46Y46*%
G04 Gerber Fmt 4.6, Leading zero omitted, Abs format (unit mm)*
G04 Created by KiCad (PCBNEW 9.0.2-9.0.2-0~ubuntu22.04.1) date 2025-06-17 17:34:02*
%MOMM*%
%LPD*%
G01*
G04 APERTURE LIST*
%TA.AperFunction,ComponentPad*%
%ADD10C,1.549400*%
%TD*%
%TA.AperFunction,ComponentPad*%
%ADD11R,1.358000X1.358000*%
%TD*%
%TA.AperFunction,ComponentPad*%
%ADD12C,1.358000*%
%TD*%
%TA.AperFunction,Conductor*%
%ADD13C,0.500000*%
%TD*%
G04 APERTURE END LIST*
D10*
%TO.N,/B2*%
%TO.C,SW7*%
X203200000Y-84800000D03*
%TO.N,unconnected-(SW7-b-Pad2)*%
X197199997Y-84800000D03*
%TO.N,unconnected-(SW7-c-Pad3)*%
X203200000Y-92799999D03*
%TO.N,/X2*%
X197199997Y-92799999D03*
%TD*%
%TO.N,/B4*%
%TO.C,SW17*%
X96800000Y-115200000D03*
%TO.N,unconnected-(SW17-b-Pad2)*%
X102800003Y-115200000D03*
%TO.N,unconnected-(SW17-c-Pad3)*%
X96800000Y-107200001D03*
%TO.N,/X2*%
X102800003Y-107200001D03*
%TD*%
%TO.N,/B4*%
%TO.C,SW20*%
X96800000Y-81600000D03*
%TO.N,unconnected-(SW20-b-Pad2)*%
X102800003Y-81600000D03*
%TO.N,unconnected-(SW20-c-Pad3)*%
X96800000Y-73600001D03*
%TO.N,/X5*%
X102800003Y-73600001D03*
%TD*%
%TO.N,/B1*%
%TO.C,SW5*%
X168400000Y-46800000D03*
%TO.N,unconnected-(SW5-b-Pad2)*%
X168400000Y-52800003D03*
%TO.N,unconnected-(SW5-c-Pad3)*%
X176399999Y-46800000D03*
%TO.N,/X5*%
X176399999Y-52800003D03*
%TD*%
%TO.N,/B2*%
%TO.C,SW6*%
X203200000Y-73600000D03*
%TO.N,unconnected-(SW6-b-Pad2)*%
X197199997Y-73600000D03*
%TO.N,unconnected-(SW6-c-Pad3)*%
X203200000Y-81599999D03*
%TO.N,/X1*%
X197199997Y-81599999D03*
%TD*%
%TO.N,/B3*%
%TO.C,SW13*%
X153999999Y-153200000D03*
%TO.N,unconnected-(SW13-b-Pad2)*%
X153999999Y-147199997D03*
%TO.N,unconnected-(SW13-c-Pad3)*%
X146000000Y-153200000D03*
%TO.N,/X3*%
X146000000Y-147199997D03*
%TD*%
%TO.N,/B2*%
%TO.C,SW9*%
X203200000Y-107200000D03*
%TO.N,unconnected-(SW9-b-Pad2)*%
X197199997Y-107200000D03*
%TO.N,unconnected-(SW9-c-Pad3)*%
X203200000Y-115199999D03*
%TO.N,/X4*%
X197199997Y-115199999D03*
%TD*%
%TO.N,/B2*%
%TO.C,SW8*%
X203200000Y-96200000D03*
%TO.N,unconnected-(SW8-b-Pad2)*%
X197199997Y-96200000D03*
%TO.N,unconnected-(SW8-c-Pad3)*%
X203200000Y-104199999D03*
%TO.N,/X3*%
X197199997Y-104199999D03*
%TD*%
%TO.N,/B3*%
%TO.C,SW12*%
X165199999Y-153200000D03*
%TO.N,unconnected-(SW12-b-Pad2)*%
X165199999Y-147199997D03*
%TO.N,unconnected-(SW12-c-Pad3)*%
X157200000Y-153200000D03*
%TO.N,/X2*%
X157200000Y-147199997D03*
%TD*%
%TO.N,/B1*%
%TO.C,SW1*%
X123600000Y-46800000D03*
%TO.N,unconnected-(SW1-b-Pad2)*%
X123600000Y-52800003D03*
%TO.N,unconnected-(SW1-c-Pad3)*%
X131599999Y-46800000D03*
%TO.N,/X1*%
X131599999Y-52800003D03*
%TD*%
%TO.N,/B4*%
%TO.C,SW18*%
X96800000Y-104000000D03*
%TO.N,unconnected-(SW18-b-Pad2)*%
X102800003Y-104000000D03*
%TO.N,unconnected-(SW18-c-Pad3)*%
X96800000Y-96000001D03*
%TO.N,/X3*%
X102800003Y-96000001D03*
%TD*%
%TO.N,/B3*%
%TO.C,SW15*%
X131699999Y-153200000D03*
%TO.N,unconnected-(SW15-b-Pad2)*%
X131699999Y-147199997D03*
%TO.N,unconnected-(SW15-c-Pad3)*%
X123700000Y-153200000D03*
%TO.N,/X5*%
X123700000Y-147199997D03*
%TD*%
%TO.N,/B1*%
%TO.C,SW2*%
X134800000Y-46800000D03*
%TO.N,unconnected-(SW2-b-Pad2)*%
X134800000Y-52800003D03*
%TO.N,unconnected-(SW2-c-Pad3)*%
X142799999Y-46800000D03*
%TO.N,/X2*%
X142799999Y-52800003D03*
%TD*%
%TO.N,/B1*%
%TO.C,SW3*%
X146000000Y-46800000D03*
%TO.N,unconnected-(SW3-b-Pad2)*%
X146000000Y-52800003D03*
%TO.N,unconnected-(SW3-c-Pad3)*%
X153999999Y-46800000D03*
%TO.N,/X3*%
X153999999Y-52800003D03*
%TD*%
%TO.N,/B3*%
%TO.C,SW11*%
X176399999Y-153200000D03*
%TO.N,unconnected-(SW11-b-Pad2)*%
X176399999Y-147199997D03*
%TO.N,unconnected-(SW11-c-Pad3)*%
X168400000Y-153200000D03*
%TO.N,/X1*%
X168400000Y-147199997D03*
%TD*%
%TO.N,/B4*%
%TO.C,SW16*%
X96800000Y-126200000D03*
%TO.N,unconnected-(SW16-b-Pad2)*%
X102800003Y-126200000D03*
%TO.N,unconnected-(SW16-c-Pad3)*%
X96800000Y-118200001D03*
%TO.N,/X1*%
X102800003Y-118200001D03*
%TD*%
%TO.N,/B3*%
%TO.C,SW14*%
X142799999Y-153200000D03*
%TO.N,unconnected-(SW14-b-Pad2)*%
X142799999Y-147199997D03*
%TO.N,unconnected-(SW14-c-Pad3)*%
X134800000Y-153200000D03*
%TO.N,/X4*%
X134800000Y-147199997D03*
%TD*%
%TO.N,/B4*%
%TO.C,SW19*%
X96800000Y-92800000D03*
%TO.N,unconnected-(SW19-b-Pad2)*%
X102800003Y-92800000D03*
%TO.N,unconnected-(SW19-c-Pad3)*%
X96800000Y-84800001D03*
%TO.N,/X4*%
X102800003Y-84800001D03*
%TD*%
%TO.N,/B1*%
%TO.C,SW4*%
X157200000Y-46800000D03*
%TO.N,unconnected-(SW4-b-Pad2)*%
X157200000Y-52800003D03*
%TO.N,unconnected-(SW4-c-Pad3)*%
X165199999Y-46800000D03*
%TO.N,/X4*%
X165199999Y-52800003D03*
%TD*%
%TO.N,/B2*%
%TO.C,SW10*%
X203200000Y-118400000D03*
%TO.N,unconnected-(SW10-b-Pad2)*%
X197199997Y-118400000D03*
%TO.N,unconnected-(SW10-c-Pad3)*%
X203200000Y-126399999D03*
%TO.N,/X5*%
X197199997Y-126399999D03*
%TD*%
D11*
%TO.N,/B1*%
%TO.C,U1*%
X143760000Y-24760000D03*
D12*
%TO.N,/B2*%
X146300000Y-24760000D03*
%TO.N,/B3*%
X148840000Y-24760000D03*
%TO.N,/B4*%
X151380000Y-24760000D03*
%TO.N,unconnected-(U1-PA8_A4_D4_SDA-Pad5)*%
X153920000Y-24760000D03*
%TO.N,unconnected-(U1-PA9_A5_D5_SCL-Pad6)*%
X156460000Y-24760000D03*
%TO.N,/X1*%
X159000000Y-24760000D03*
%TO.N,/X2*%
X159000000Y-40000000D03*
%TO.N,/X3*%
X156460000Y-40000000D03*
%TO.N,/X4*%
X153920000Y-40000000D03*
%TO.N,/X5*%
X151380000Y-40000000D03*
%TO.N,unconnected-(U1-3V3-Pad12)*%
X148840000Y-40000000D03*
%TO.N,unconnected-(U1-GND-Pad13)*%
X146300000Y-40000000D03*
%TO.N,unconnected-(U1-5V-Pad14)*%
X143760000Y-40000000D03*
%TD*%
D13*
%TO.N,/X3*%
X153999999Y-52800003D02*
X154699997Y-52800003D01*
X154699997Y-52800003D02*
X155500000Y-52000000D01*
X155500000Y-52000000D02*
X155500000Y-40960000D01*
X155500000Y-40960000D02*
X156460000Y-40000000D01*
%TO.N,/X4*%
X163500002Y-54500000D02*
X153000000Y-54500000D01*
X102800003Y-84800001D02*
X104500000Y-84800001D01*
X105000000Y-85100002D02*
X104699999Y-84800001D01*
X107000000Y-145000000D02*
X105000000Y-143000000D01*
X105000000Y-143000000D02*
X105000000Y-85500000D01*
X151500000Y-53000000D02*
X151500000Y-42420000D01*
X134800000Y-147199997D02*
X134800000Y-145700000D01*
X105000000Y-84500000D02*
X105000000Y-84000000D01*
X134800000Y-145700000D02*
X135500000Y-145000000D01*
X104699999Y-84800001D02*
X105000000Y-84500000D01*
X104500000Y-84800001D02*
X104699999Y-84800001D01*
X192500000Y-145000000D02*
X195000000Y-142500000D01*
X195000000Y-117399996D02*
X197199997Y-115199999D01*
X107000000Y-55500000D02*
X149000000Y-55500000D01*
X135500000Y-145000000D02*
X107000000Y-145000000D01*
X149000000Y-55500000D02*
X151500000Y-53000000D01*
X195000000Y-142500000D02*
X195000000Y-117399996D01*
X105000000Y-85500000D02*
X105000000Y-85100002D01*
X151500000Y-42420000D02*
X153920000Y-40000000D01*
X105000000Y-84000000D02*
X105000000Y-57500000D01*
X165199999Y-52800003D02*
X163500002Y-54500000D01*
X135500000Y-145000000D02*
X192500000Y-145000000D01*
X105000000Y-84000000D02*
X105000000Y-85500000D01*
X105000000Y-57500000D02*
X107000000Y-55500000D01*
X153000000Y-54500000D02*
X151500000Y-53000000D01*
%TO.N,/X5*%
X200000000Y-55000000D02*
X195000000Y-50000000D01*
X192000000Y-149500000D02*
X201000000Y-140500000D01*
X100000000Y-145500000D02*
X100000000Y-76400004D01*
X147380000Y-44000000D02*
X151380000Y-40000000D01*
X123700000Y-147199997D02*
X126000003Y-149500000D01*
X104000000Y-149500000D02*
X100000000Y-145500000D01*
X126500000Y-149500000D02*
X104000000Y-149500000D01*
X201000000Y-140500000D02*
X201000000Y-130200002D01*
X200000000Y-123500000D02*
X200000000Y-55000000D01*
X195000000Y-50000000D02*
X179200002Y-50000000D01*
X126000003Y-149500000D02*
X126500000Y-149500000D01*
X197199997Y-126399999D02*
X197199997Y-126300003D01*
X126500000Y-149500000D02*
X192000000Y-149500000D01*
X114000000Y-44000000D02*
X147380000Y-44000000D01*
X100000000Y-76400004D02*
X102800003Y-73600001D01*
X201000000Y-130200002D02*
X197199997Y-126399999D01*
X197199997Y-126300003D02*
X200000000Y-123500000D01*
X100000000Y-76400004D02*
X100000000Y-58000000D01*
X100000000Y-58000000D02*
X114000000Y-44000000D01*
X179200002Y-50000000D02*
X176399999Y-52800003D01*
%TO.N,unconnected-(SW20-c-Pad3)*%
X96800000Y-73600001D02*
X97600001Y-73600001D01*
%TD*%
M02*
