%TF.GenerationSoftware,KiCad,Pcbnew,9.0.2-9.0.2-0~ubuntu22.04.1*%
%TF.CreationDate,2025-06-17T17:34:02-07:00*%
%TF.ProjectId,ddi_1.2,6464695f-312e-4322-9e6b-696361645f70,rev?*%
%TF.SameCoordinates,Original*%
%TF.FileFunction,Legend,Bot*%
%TF.FilePolarity,Positive*%
%FSLAX46Y46*%
G04 Gerber Fmt 4.6, Leading zero omitted, Abs format (unit mm)*
G04 Created by KiCad (PCBNEW 9.0.2-9.0.2-0~ubuntu22.04.1) date 2025-06-17 17:34:02*
%MOMM*%
%LPD*%
G01*
G04 APERTURE LIST*
%ADD10C,0.150000*%
%ADD11C,0.508000*%
%ADD12C,0.127000*%
%ADD13C,0.200000*%
G04 APERTURE END LIST*
D10*
X137636319Y-25903095D02*
X138445842Y-25903095D01*
X138445842Y-25903095D02*
X138541080Y-25950714D01*
X138541080Y-25950714D02*
X138588700Y-25998333D01*
X138588700Y-25998333D02*
X138636319Y-26093571D01*
X138636319Y-26093571D02*
X138636319Y-26284047D01*
X138636319Y-26284047D02*
X138588700Y-26379285D01*
X138588700Y-26379285D02*
X138541080Y-26426904D01*
X138541080Y-26426904D02*
X138445842Y-26474523D01*
X138445842Y-26474523D02*
X137636319Y-26474523D01*
X138636319Y-27474523D02*
X138636319Y-26903095D01*
X138636319Y-27188809D02*
X137636319Y-27188809D01*
X137636319Y-27188809D02*
X137779176Y-27093571D01*
X137779176Y-27093571D02*
X137874414Y-26998333D01*
X137874414Y-26998333D02*
X137922033Y-26903095D01*
D11*
%TO.C,SW7*%
X203581000Y-84139100D02*
G75*
G02*
X202819000Y-84139100I-381000J0D01*
G01*
X202819000Y-84139100D02*
G75*
G02*
X203581000Y-84139100I381000J0D01*
G01*
%TO.C,SW17*%
X97181000Y-115860900D02*
G75*
G02*
X96419000Y-115860900I-381000J0D01*
G01*
X96419000Y-115860900D02*
G75*
G02*
X97181000Y-115860900I381000J0D01*
G01*
%TO.C,SW20*%
X97181000Y-82260900D02*
G75*
G02*
X96419000Y-82260900I-381000J0D01*
G01*
X96419000Y-82260900D02*
G75*
G02*
X97181000Y-82260900I381000J0D01*
G01*
%TO.C,SW5*%
X168120100Y-46800000D02*
G75*
G02*
X167358100Y-46800000I-381000J0D01*
G01*
X167358100Y-46800000D02*
G75*
G02*
X168120100Y-46800000I381000J0D01*
G01*
%TO.C,SW6*%
X203581000Y-72939100D02*
G75*
G02*
X202819000Y-72939100I-381000J0D01*
G01*
X202819000Y-72939100D02*
G75*
G02*
X203581000Y-72939100I381000J0D01*
G01*
%TO.C,SW13*%
X155041899Y-153200000D02*
G75*
G02*
X154279899Y-153200000I-381000J0D01*
G01*
X154279899Y-153200000D02*
G75*
G02*
X155041899Y-153200000I381000J0D01*
G01*
%TO.C,SW9*%
X203581000Y-106539100D02*
G75*
G02*
X202819000Y-106539100I-381000J0D01*
G01*
X202819000Y-106539100D02*
G75*
G02*
X203581000Y-106539100I381000J0D01*
G01*
%TO.C,SW8*%
X203581000Y-95539100D02*
G75*
G02*
X202819000Y-95539100I-381000J0D01*
G01*
X202819000Y-95539100D02*
G75*
G02*
X203581000Y-95539100I381000J0D01*
G01*
%TO.C,SW12*%
X166241899Y-153200000D02*
G75*
G02*
X165479899Y-153200000I-381000J0D01*
G01*
X165479899Y-153200000D02*
G75*
G02*
X166241899Y-153200000I381000J0D01*
G01*
%TO.C,SW1*%
X123320100Y-46800000D02*
G75*
G02*
X122558100Y-46800000I-381000J0D01*
G01*
X122558100Y-46800000D02*
G75*
G02*
X123320100Y-46800000I381000J0D01*
G01*
%TO.C,SW18*%
X97181000Y-104660900D02*
G75*
G02*
X96419000Y-104660900I-381000J0D01*
G01*
X96419000Y-104660900D02*
G75*
G02*
X97181000Y-104660900I381000J0D01*
G01*
%TO.C,SW15*%
X132741899Y-153200000D02*
G75*
G02*
X131979899Y-153200000I-381000J0D01*
G01*
X131979899Y-153200000D02*
G75*
G02*
X132741899Y-153200000I381000J0D01*
G01*
%TO.C,SW2*%
X134520100Y-46800000D02*
G75*
G02*
X133758100Y-46800000I-381000J0D01*
G01*
X133758100Y-46800000D02*
G75*
G02*
X134520100Y-46800000I381000J0D01*
G01*
%TO.C,SW3*%
X145720100Y-46800000D02*
G75*
G02*
X144958100Y-46800000I-381000J0D01*
G01*
X144958100Y-46800000D02*
G75*
G02*
X145720100Y-46800000I381000J0D01*
G01*
%TO.C,SW11*%
X177441899Y-153200000D02*
G75*
G02*
X176679899Y-153200000I-381000J0D01*
G01*
X176679899Y-153200000D02*
G75*
G02*
X177441899Y-153200000I381000J0D01*
G01*
%TO.C,SW16*%
X97181000Y-126860900D02*
G75*
G02*
X96419000Y-126860900I-381000J0D01*
G01*
X96419000Y-126860900D02*
G75*
G02*
X97181000Y-126860900I381000J0D01*
G01*
%TO.C,SW14*%
X143841899Y-153200000D02*
G75*
G02*
X143079899Y-153200000I-381000J0D01*
G01*
X143079899Y-153200000D02*
G75*
G02*
X143841899Y-153200000I381000J0D01*
G01*
%TO.C,SW19*%
X97181000Y-93460900D02*
G75*
G02*
X96419000Y-93460900I-381000J0D01*
G01*
X96419000Y-93460900D02*
G75*
G02*
X97181000Y-93460900I381000J0D01*
G01*
%TO.C,SW4*%
X156920100Y-46800000D02*
G75*
G02*
X156158100Y-46800000I-381000J0D01*
G01*
X156158100Y-46800000D02*
G75*
G02*
X156920100Y-46800000I381000J0D01*
G01*
%TO.C,SW10*%
X203581000Y-117739100D02*
G75*
G02*
X202819000Y-117739100I-381000J0D01*
G01*
X202819000Y-117739100D02*
G75*
G02*
X203581000Y-117739100I381000J0D01*
G01*
D12*
%TO.C,U1*%
X140839000Y-23490000D02*
X161794000Y-23490000D01*
X140839000Y-41270000D02*
X140839000Y-23490000D01*
X161794000Y-23490000D02*
X161794000Y-41270000D01*
X161794000Y-41270000D02*
X140839000Y-41270000D01*
D13*
X143733000Y-22880000D02*
G75*
G02*
X143533000Y-22880000I-100000J0D01*
G01*
X143533000Y-22880000D02*
G75*
G02*
X143733000Y-22880000I100000J0D01*
G01*
%TD*%
M02*
