%TF.GenerationSoftware,KiCad,Pcbnew,9.0.2-9.0.2-0~ubuntu22.04.1*%
%TF.CreationDate,2025-06-17T17:34:02-07:00*%
%TF.ProjectId,ddi_1.2,6464695f-312e-4322-9e6b-696361645f70,rev?*%
%TF.SameCoordinates,Original*%
%TF.FileFunction,Legend,Top*%
%TF.FilePolarity,Positive*%
%FSLAX46Y46*%
G04 Gerber Fmt 4.6, Leading zero omitted, Abs format (unit mm)*
G04 Created by KiCad (PCBNEW 9.0.2-9.0.2-0~ubuntu22.04.1) date 2025-06-17 17:34:02*
%MOMM*%
%LPD*%
G01*
G04 APERTURE LIST*
%ADD10C,0.150000*%
%ADD11C,0.152400*%
G04 APERTURE END LIST*
D10*
X100207202Y-113009523D02*
X100254821Y-112866666D01*
X100254821Y-112866666D02*
X100254821Y-112628571D01*
X100254821Y-112628571D02*
X100207202Y-112533333D01*
X100207202Y-112533333D02*
X100159582Y-112485714D01*
X100159582Y-112485714D02*
X100064344Y-112438095D01*
X100064344Y-112438095D02*
X99969106Y-112438095D01*
X99969106Y-112438095D02*
X99873868Y-112485714D01*
X99873868Y-112485714D02*
X99826249Y-112533333D01*
X99826249Y-112533333D02*
X99778630Y-112628571D01*
X99778630Y-112628571D02*
X99731011Y-112819047D01*
X99731011Y-112819047D02*
X99683392Y-112914285D01*
X99683392Y-112914285D02*
X99635773Y-112961904D01*
X99635773Y-112961904D02*
X99540535Y-113009523D01*
X99540535Y-113009523D02*
X99445297Y-113009523D01*
X99445297Y-113009523D02*
X99350059Y-112961904D01*
X99350059Y-112961904D02*
X99302440Y-112914285D01*
X99302440Y-112914285D02*
X99254821Y-112819047D01*
X99254821Y-112819047D02*
X99254821Y-112580952D01*
X99254821Y-112580952D02*
X99302440Y-112438095D01*
X99254821Y-112104761D02*
X100254821Y-111866666D01*
X100254821Y-111866666D02*
X99540535Y-111676190D01*
X99540535Y-111676190D02*
X100254821Y-111485714D01*
X100254821Y-111485714D02*
X99254821Y-111247619D01*
X100254821Y-110342857D02*
X100254821Y-110914285D01*
X100254821Y-110628571D02*
X99254821Y-110628571D01*
X99254821Y-110628571D02*
X99397678Y-110723809D01*
X99397678Y-110723809D02*
X99492916Y-110819047D01*
X99492916Y-110819047D02*
X99540535Y-110914285D01*
X99254821Y-110009523D02*
X99254821Y-109342857D01*
X99254821Y-109342857D02*
X100254821Y-109771428D01*
X100207202Y-79409523D02*
X100254821Y-79266666D01*
X100254821Y-79266666D02*
X100254821Y-79028571D01*
X100254821Y-79028571D02*
X100207202Y-78933333D01*
X100207202Y-78933333D02*
X100159582Y-78885714D01*
X100159582Y-78885714D02*
X100064344Y-78838095D01*
X100064344Y-78838095D02*
X99969106Y-78838095D01*
X99969106Y-78838095D02*
X99873868Y-78885714D01*
X99873868Y-78885714D02*
X99826249Y-78933333D01*
X99826249Y-78933333D02*
X99778630Y-79028571D01*
X99778630Y-79028571D02*
X99731011Y-79219047D01*
X99731011Y-79219047D02*
X99683392Y-79314285D01*
X99683392Y-79314285D02*
X99635773Y-79361904D01*
X99635773Y-79361904D02*
X99540535Y-79409523D01*
X99540535Y-79409523D02*
X99445297Y-79409523D01*
X99445297Y-79409523D02*
X99350059Y-79361904D01*
X99350059Y-79361904D02*
X99302440Y-79314285D01*
X99302440Y-79314285D02*
X99254821Y-79219047D01*
X99254821Y-79219047D02*
X99254821Y-78980952D01*
X99254821Y-78980952D02*
X99302440Y-78838095D01*
X99254821Y-78504761D02*
X100254821Y-78266666D01*
X100254821Y-78266666D02*
X99540535Y-78076190D01*
X99540535Y-78076190D02*
X100254821Y-77885714D01*
X100254821Y-77885714D02*
X99254821Y-77647619D01*
X99350059Y-77314285D02*
X99302440Y-77266666D01*
X99302440Y-77266666D02*
X99254821Y-77171428D01*
X99254821Y-77171428D02*
X99254821Y-76933333D01*
X99254821Y-76933333D02*
X99302440Y-76838095D01*
X99302440Y-76838095D02*
X99350059Y-76790476D01*
X99350059Y-76790476D02*
X99445297Y-76742857D01*
X99445297Y-76742857D02*
X99540535Y-76742857D01*
X99540535Y-76742857D02*
X99683392Y-76790476D01*
X99683392Y-76790476D02*
X100254821Y-77361904D01*
X100254821Y-77361904D02*
X100254821Y-76742857D01*
X99254821Y-76123809D02*
X99254821Y-76028571D01*
X99254821Y-76028571D02*
X99302440Y-75933333D01*
X99302440Y-75933333D02*
X99350059Y-75885714D01*
X99350059Y-75885714D02*
X99445297Y-75838095D01*
X99445297Y-75838095D02*
X99635773Y-75790476D01*
X99635773Y-75790476D02*
X99873868Y-75790476D01*
X99873868Y-75790476D02*
X100064344Y-75838095D01*
X100064344Y-75838095D02*
X100159582Y-75885714D01*
X100159582Y-75885714D02*
X100207202Y-75933333D01*
X100207202Y-75933333D02*
X100254821Y-76028571D01*
X100254821Y-76028571D02*
X100254821Y-76123809D01*
X100254821Y-76123809D02*
X100207202Y-76219047D01*
X100207202Y-76219047D02*
X100159582Y-76266666D01*
X100159582Y-76266666D02*
X100064344Y-76314285D01*
X100064344Y-76314285D02*
X99873868Y-76361904D01*
X99873868Y-76361904D02*
X99635773Y-76361904D01*
X99635773Y-76361904D02*
X99445297Y-76314285D01*
X99445297Y-76314285D02*
X99350059Y-76266666D01*
X99350059Y-76266666D02*
X99302440Y-76219047D01*
X99302440Y-76219047D02*
X99254821Y-76123809D01*
X171066667Y-50207202D02*
X171209524Y-50254821D01*
X171209524Y-50254821D02*
X171447619Y-50254821D01*
X171447619Y-50254821D02*
X171542857Y-50207202D01*
X171542857Y-50207202D02*
X171590476Y-50159582D01*
X171590476Y-50159582D02*
X171638095Y-50064344D01*
X171638095Y-50064344D02*
X171638095Y-49969106D01*
X171638095Y-49969106D02*
X171590476Y-49873868D01*
X171590476Y-49873868D02*
X171542857Y-49826249D01*
X171542857Y-49826249D02*
X171447619Y-49778630D01*
X171447619Y-49778630D02*
X171257143Y-49731011D01*
X171257143Y-49731011D02*
X171161905Y-49683392D01*
X171161905Y-49683392D02*
X171114286Y-49635773D01*
X171114286Y-49635773D02*
X171066667Y-49540535D01*
X171066667Y-49540535D02*
X171066667Y-49445297D01*
X171066667Y-49445297D02*
X171114286Y-49350059D01*
X171114286Y-49350059D02*
X171161905Y-49302440D01*
X171161905Y-49302440D02*
X171257143Y-49254821D01*
X171257143Y-49254821D02*
X171495238Y-49254821D01*
X171495238Y-49254821D02*
X171638095Y-49302440D01*
X171971429Y-49254821D02*
X172209524Y-50254821D01*
X172209524Y-50254821D02*
X172400000Y-49540535D01*
X172400000Y-49540535D02*
X172590476Y-50254821D01*
X172590476Y-50254821D02*
X172828572Y-49254821D01*
X173685714Y-49254821D02*
X173209524Y-49254821D01*
X173209524Y-49254821D02*
X173161905Y-49731011D01*
X173161905Y-49731011D02*
X173209524Y-49683392D01*
X173209524Y-49683392D02*
X173304762Y-49635773D01*
X173304762Y-49635773D02*
X173542857Y-49635773D01*
X173542857Y-49635773D02*
X173638095Y-49683392D01*
X173638095Y-49683392D02*
X173685714Y-49731011D01*
X173685714Y-49731011D02*
X173733333Y-49826249D01*
X173733333Y-49826249D02*
X173733333Y-50064344D01*
X173733333Y-50064344D02*
X173685714Y-50159582D01*
X173685714Y-50159582D02*
X173638095Y-50207202D01*
X173638095Y-50207202D02*
X173542857Y-50254821D01*
X173542857Y-50254821D02*
X173304762Y-50254821D01*
X173304762Y-50254821D02*
X173209524Y-50207202D01*
X173209524Y-50207202D02*
X173161905Y-50159582D01*
X151809522Y-149792798D02*
X151666665Y-149745178D01*
X151666665Y-149745178D02*
X151428570Y-149745178D01*
X151428570Y-149745178D02*
X151333332Y-149792798D01*
X151333332Y-149792798D02*
X151285713Y-149840417D01*
X151285713Y-149840417D02*
X151238094Y-149935655D01*
X151238094Y-149935655D02*
X151238094Y-150030893D01*
X151238094Y-150030893D02*
X151285713Y-150126131D01*
X151285713Y-150126131D02*
X151333332Y-150173750D01*
X151333332Y-150173750D02*
X151428570Y-150221369D01*
X151428570Y-150221369D02*
X151619046Y-150268988D01*
X151619046Y-150268988D02*
X151714284Y-150316607D01*
X151714284Y-150316607D02*
X151761903Y-150364226D01*
X151761903Y-150364226D02*
X151809522Y-150459464D01*
X151809522Y-150459464D02*
X151809522Y-150554702D01*
X151809522Y-150554702D02*
X151761903Y-150649940D01*
X151761903Y-150649940D02*
X151714284Y-150697559D01*
X151714284Y-150697559D02*
X151619046Y-150745178D01*
X151619046Y-150745178D02*
X151380951Y-150745178D01*
X151380951Y-150745178D02*
X151238094Y-150697559D01*
X150904760Y-150745178D02*
X150666665Y-149745178D01*
X150666665Y-149745178D02*
X150476189Y-150459464D01*
X150476189Y-150459464D02*
X150285713Y-149745178D01*
X150285713Y-149745178D02*
X150047618Y-150745178D01*
X149142856Y-149745178D02*
X149714284Y-149745178D01*
X149428570Y-149745178D02*
X149428570Y-150745178D01*
X149428570Y-150745178D02*
X149523808Y-150602321D01*
X149523808Y-150602321D02*
X149619046Y-150507083D01*
X149619046Y-150507083D02*
X149714284Y-150459464D01*
X148809522Y-150745178D02*
X148190475Y-150745178D01*
X148190475Y-150745178D02*
X148523808Y-150364226D01*
X148523808Y-150364226D02*
X148380951Y-150364226D01*
X148380951Y-150364226D02*
X148285713Y-150316607D01*
X148285713Y-150316607D02*
X148238094Y-150268988D01*
X148238094Y-150268988D02*
X148190475Y-150173750D01*
X148190475Y-150173750D02*
X148190475Y-149935655D01*
X148190475Y-149935655D02*
X148238094Y-149840417D01*
X148238094Y-149840417D02*
X148285713Y-149792798D01*
X148285713Y-149792798D02*
X148380951Y-149745178D01*
X148380951Y-149745178D02*
X148666665Y-149745178D01*
X148666665Y-149745178D02*
X148761903Y-149792798D01*
X148761903Y-149792798D02*
X148809522Y-149840417D01*
X199792798Y-109866667D02*
X199745178Y-110009524D01*
X199745178Y-110009524D02*
X199745178Y-110247619D01*
X199745178Y-110247619D02*
X199792798Y-110342857D01*
X199792798Y-110342857D02*
X199840417Y-110390476D01*
X199840417Y-110390476D02*
X199935655Y-110438095D01*
X199935655Y-110438095D02*
X200030893Y-110438095D01*
X200030893Y-110438095D02*
X200126131Y-110390476D01*
X200126131Y-110390476D02*
X200173750Y-110342857D01*
X200173750Y-110342857D02*
X200221369Y-110247619D01*
X200221369Y-110247619D02*
X200268988Y-110057143D01*
X200268988Y-110057143D02*
X200316607Y-109961905D01*
X200316607Y-109961905D02*
X200364226Y-109914286D01*
X200364226Y-109914286D02*
X200459464Y-109866667D01*
X200459464Y-109866667D02*
X200554702Y-109866667D01*
X200554702Y-109866667D02*
X200649940Y-109914286D01*
X200649940Y-109914286D02*
X200697559Y-109961905D01*
X200697559Y-109961905D02*
X200745178Y-110057143D01*
X200745178Y-110057143D02*
X200745178Y-110295238D01*
X200745178Y-110295238D02*
X200697559Y-110438095D01*
X200745178Y-110771429D02*
X199745178Y-111009524D01*
X199745178Y-111009524D02*
X200459464Y-111200000D01*
X200459464Y-111200000D02*
X199745178Y-111390476D01*
X199745178Y-111390476D02*
X200745178Y-111628572D01*
X199745178Y-112057143D02*
X199745178Y-112247619D01*
X199745178Y-112247619D02*
X199792798Y-112342857D01*
X199792798Y-112342857D02*
X199840417Y-112390476D01*
X199840417Y-112390476D02*
X199983274Y-112485714D01*
X199983274Y-112485714D02*
X200173750Y-112533333D01*
X200173750Y-112533333D02*
X200554702Y-112533333D01*
X200554702Y-112533333D02*
X200649940Y-112485714D01*
X200649940Y-112485714D02*
X200697559Y-112438095D01*
X200697559Y-112438095D02*
X200745178Y-112342857D01*
X200745178Y-112342857D02*
X200745178Y-112152381D01*
X200745178Y-112152381D02*
X200697559Y-112057143D01*
X200697559Y-112057143D02*
X200649940Y-112009524D01*
X200649940Y-112009524D02*
X200554702Y-111961905D01*
X200554702Y-111961905D02*
X200316607Y-111961905D01*
X200316607Y-111961905D02*
X200221369Y-112009524D01*
X200221369Y-112009524D02*
X200173750Y-112057143D01*
X200173750Y-112057143D02*
X200126131Y-112152381D01*
X200126131Y-112152381D02*
X200126131Y-112342857D01*
X200126131Y-112342857D02*
X200173750Y-112438095D01*
X200173750Y-112438095D02*
X200221369Y-112485714D01*
X200221369Y-112485714D02*
X200316607Y-112533333D01*
X163009522Y-149792798D02*
X162866665Y-149745178D01*
X162866665Y-149745178D02*
X162628570Y-149745178D01*
X162628570Y-149745178D02*
X162533332Y-149792798D01*
X162533332Y-149792798D02*
X162485713Y-149840417D01*
X162485713Y-149840417D02*
X162438094Y-149935655D01*
X162438094Y-149935655D02*
X162438094Y-150030893D01*
X162438094Y-150030893D02*
X162485713Y-150126131D01*
X162485713Y-150126131D02*
X162533332Y-150173750D01*
X162533332Y-150173750D02*
X162628570Y-150221369D01*
X162628570Y-150221369D02*
X162819046Y-150268988D01*
X162819046Y-150268988D02*
X162914284Y-150316607D01*
X162914284Y-150316607D02*
X162961903Y-150364226D01*
X162961903Y-150364226D02*
X163009522Y-150459464D01*
X163009522Y-150459464D02*
X163009522Y-150554702D01*
X163009522Y-150554702D02*
X162961903Y-150649940D01*
X162961903Y-150649940D02*
X162914284Y-150697559D01*
X162914284Y-150697559D02*
X162819046Y-150745178D01*
X162819046Y-150745178D02*
X162580951Y-150745178D01*
X162580951Y-150745178D02*
X162438094Y-150697559D01*
X162104760Y-150745178D02*
X161866665Y-149745178D01*
X161866665Y-149745178D02*
X161676189Y-150459464D01*
X161676189Y-150459464D02*
X161485713Y-149745178D01*
X161485713Y-149745178D02*
X161247618Y-150745178D01*
X160342856Y-149745178D02*
X160914284Y-149745178D01*
X160628570Y-149745178D02*
X160628570Y-150745178D01*
X160628570Y-150745178D02*
X160723808Y-150602321D01*
X160723808Y-150602321D02*
X160819046Y-150507083D01*
X160819046Y-150507083D02*
X160914284Y-150459464D01*
X159961903Y-150649940D02*
X159914284Y-150697559D01*
X159914284Y-150697559D02*
X159819046Y-150745178D01*
X159819046Y-150745178D02*
X159580951Y-150745178D01*
X159580951Y-150745178D02*
X159485713Y-150697559D01*
X159485713Y-150697559D02*
X159438094Y-150649940D01*
X159438094Y-150649940D02*
X159390475Y-150554702D01*
X159390475Y-150554702D02*
X159390475Y-150459464D01*
X159390475Y-150459464D02*
X159438094Y-150316607D01*
X159438094Y-150316607D02*
X160009522Y-149745178D01*
X160009522Y-149745178D02*
X159390475Y-149745178D01*
X100207202Y-101809523D02*
X100254821Y-101666666D01*
X100254821Y-101666666D02*
X100254821Y-101428571D01*
X100254821Y-101428571D02*
X100207202Y-101333333D01*
X100207202Y-101333333D02*
X100159582Y-101285714D01*
X100159582Y-101285714D02*
X100064344Y-101238095D01*
X100064344Y-101238095D02*
X99969106Y-101238095D01*
X99969106Y-101238095D02*
X99873868Y-101285714D01*
X99873868Y-101285714D02*
X99826249Y-101333333D01*
X99826249Y-101333333D02*
X99778630Y-101428571D01*
X99778630Y-101428571D02*
X99731011Y-101619047D01*
X99731011Y-101619047D02*
X99683392Y-101714285D01*
X99683392Y-101714285D02*
X99635773Y-101761904D01*
X99635773Y-101761904D02*
X99540535Y-101809523D01*
X99540535Y-101809523D02*
X99445297Y-101809523D01*
X99445297Y-101809523D02*
X99350059Y-101761904D01*
X99350059Y-101761904D02*
X99302440Y-101714285D01*
X99302440Y-101714285D02*
X99254821Y-101619047D01*
X99254821Y-101619047D02*
X99254821Y-101380952D01*
X99254821Y-101380952D02*
X99302440Y-101238095D01*
X99254821Y-100904761D02*
X100254821Y-100666666D01*
X100254821Y-100666666D02*
X99540535Y-100476190D01*
X99540535Y-100476190D02*
X100254821Y-100285714D01*
X100254821Y-100285714D02*
X99254821Y-100047619D01*
X100254821Y-99142857D02*
X100254821Y-99714285D01*
X100254821Y-99428571D02*
X99254821Y-99428571D01*
X99254821Y-99428571D02*
X99397678Y-99523809D01*
X99397678Y-99523809D02*
X99492916Y-99619047D01*
X99492916Y-99619047D02*
X99540535Y-99714285D01*
X99683392Y-98571428D02*
X99635773Y-98666666D01*
X99635773Y-98666666D02*
X99588154Y-98714285D01*
X99588154Y-98714285D02*
X99492916Y-98761904D01*
X99492916Y-98761904D02*
X99445297Y-98761904D01*
X99445297Y-98761904D02*
X99350059Y-98714285D01*
X99350059Y-98714285D02*
X99302440Y-98666666D01*
X99302440Y-98666666D02*
X99254821Y-98571428D01*
X99254821Y-98571428D02*
X99254821Y-98380952D01*
X99254821Y-98380952D02*
X99302440Y-98285714D01*
X99302440Y-98285714D02*
X99350059Y-98238095D01*
X99350059Y-98238095D02*
X99445297Y-98190476D01*
X99445297Y-98190476D02*
X99492916Y-98190476D01*
X99492916Y-98190476D02*
X99588154Y-98238095D01*
X99588154Y-98238095D02*
X99635773Y-98285714D01*
X99635773Y-98285714D02*
X99683392Y-98380952D01*
X99683392Y-98380952D02*
X99683392Y-98571428D01*
X99683392Y-98571428D02*
X99731011Y-98666666D01*
X99731011Y-98666666D02*
X99778630Y-98714285D01*
X99778630Y-98714285D02*
X99873868Y-98761904D01*
X99873868Y-98761904D02*
X100064344Y-98761904D01*
X100064344Y-98761904D02*
X100159582Y-98714285D01*
X100159582Y-98714285D02*
X100207202Y-98666666D01*
X100207202Y-98666666D02*
X100254821Y-98571428D01*
X100254821Y-98571428D02*
X100254821Y-98380952D01*
X100254821Y-98380952D02*
X100207202Y-98285714D01*
X100207202Y-98285714D02*
X100159582Y-98238095D01*
X100159582Y-98238095D02*
X100064344Y-98190476D01*
X100064344Y-98190476D02*
X99873868Y-98190476D01*
X99873868Y-98190476D02*
X99778630Y-98238095D01*
X99778630Y-98238095D02*
X99731011Y-98285714D01*
X99731011Y-98285714D02*
X99683392Y-98380952D01*
X129509522Y-149792798D02*
X129366665Y-149745178D01*
X129366665Y-149745178D02*
X129128570Y-149745178D01*
X129128570Y-149745178D02*
X129033332Y-149792798D01*
X129033332Y-149792798D02*
X128985713Y-149840417D01*
X128985713Y-149840417D02*
X128938094Y-149935655D01*
X128938094Y-149935655D02*
X128938094Y-150030893D01*
X128938094Y-150030893D02*
X128985713Y-150126131D01*
X128985713Y-150126131D02*
X129033332Y-150173750D01*
X129033332Y-150173750D02*
X129128570Y-150221369D01*
X129128570Y-150221369D02*
X129319046Y-150268988D01*
X129319046Y-150268988D02*
X129414284Y-150316607D01*
X129414284Y-150316607D02*
X129461903Y-150364226D01*
X129461903Y-150364226D02*
X129509522Y-150459464D01*
X129509522Y-150459464D02*
X129509522Y-150554702D01*
X129509522Y-150554702D02*
X129461903Y-150649940D01*
X129461903Y-150649940D02*
X129414284Y-150697559D01*
X129414284Y-150697559D02*
X129319046Y-150745178D01*
X129319046Y-150745178D02*
X129080951Y-150745178D01*
X129080951Y-150745178D02*
X128938094Y-150697559D01*
X128604760Y-150745178D02*
X128366665Y-149745178D01*
X128366665Y-149745178D02*
X128176189Y-150459464D01*
X128176189Y-150459464D02*
X127985713Y-149745178D01*
X127985713Y-149745178D02*
X127747618Y-150745178D01*
X126842856Y-149745178D02*
X127414284Y-149745178D01*
X127128570Y-149745178D02*
X127128570Y-150745178D01*
X127128570Y-150745178D02*
X127223808Y-150602321D01*
X127223808Y-150602321D02*
X127319046Y-150507083D01*
X127319046Y-150507083D02*
X127414284Y-150459464D01*
X125938094Y-150745178D02*
X126414284Y-150745178D01*
X126414284Y-150745178D02*
X126461903Y-150268988D01*
X126461903Y-150268988D02*
X126414284Y-150316607D01*
X126414284Y-150316607D02*
X126319046Y-150364226D01*
X126319046Y-150364226D02*
X126080951Y-150364226D01*
X126080951Y-150364226D02*
X125985713Y-150316607D01*
X125985713Y-150316607D02*
X125938094Y-150268988D01*
X125938094Y-150268988D02*
X125890475Y-150173750D01*
X125890475Y-150173750D02*
X125890475Y-149935655D01*
X125890475Y-149935655D02*
X125938094Y-149840417D01*
X125938094Y-149840417D02*
X125985713Y-149792798D01*
X125985713Y-149792798D02*
X126080951Y-149745178D01*
X126080951Y-149745178D02*
X126319046Y-149745178D01*
X126319046Y-149745178D02*
X126414284Y-149792798D01*
X126414284Y-149792798D02*
X126461903Y-149840417D01*
X137466667Y-50207202D02*
X137609524Y-50254821D01*
X137609524Y-50254821D02*
X137847619Y-50254821D01*
X137847619Y-50254821D02*
X137942857Y-50207202D01*
X137942857Y-50207202D02*
X137990476Y-50159582D01*
X137990476Y-50159582D02*
X138038095Y-50064344D01*
X138038095Y-50064344D02*
X138038095Y-49969106D01*
X138038095Y-49969106D02*
X137990476Y-49873868D01*
X137990476Y-49873868D02*
X137942857Y-49826249D01*
X137942857Y-49826249D02*
X137847619Y-49778630D01*
X137847619Y-49778630D02*
X137657143Y-49731011D01*
X137657143Y-49731011D02*
X137561905Y-49683392D01*
X137561905Y-49683392D02*
X137514286Y-49635773D01*
X137514286Y-49635773D02*
X137466667Y-49540535D01*
X137466667Y-49540535D02*
X137466667Y-49445297D01*
X137466667Y-49445297D02*
X137514286Y-49350059D01*
X137514286Y-49350059D02*
X137561905Y-49302440D01*
X137561905Y-49302440D02*
X137657143Y-49254821D01*
X137657143Y-49254821D02*
X137895238Y-49254821D01*
X137895238Y-49254821D02*
X138038095Y-49302440D01*
X138371429Y-49254821D02*
X138609524Y-50254821D01*
X138609524Y-50254821D02*
X138800000Y-49540535D01*
X138800000Y-49540535D02*
X138990476Y-50254821D01*
X138990476Y-50254821D02*
X139228572Y-49254821D01*
X139561905Y-49350059D02*
X139609524Y-49302440D01*
X139609524Y-49302440D02*
X139704762Y-49254821D01*
X139704762Y-49254821D02*
X139942857Y-49254821D01*
X139942857Y-49254821D02*
X140038095Y-49302440D01*
X140038095Y-49302440D02*
X140085714Y-49350059D01*
X140085714Y-49350059D02*
X140133333Y-49445297D01*
X140133333Y-49445297D02*
X140133333Y-49540535D01*
X140133333Y-49540535D02*
X140085714Y-49683392D01*
X140085714Y-49683392D02*
X139514286Y-50254821D01*
X139514286Y-50254821D02*
X140133333Y-50254821D01*
X148666667Y-50207202D02*
X148809524Y-50254821D01*
X148809524Y-50254821D02*
X149047619Y-50254821D01*
X149047619Y-50254821D02*
X149142857Y-50207202D01*
X149142857Y-50207202D02*
X149190476Y-50159582D01*
X149190476Y-50159582D02*
X149238095Y-50064344D01*
X149238095Y-50064344D02*
X149238095Y-49969106D01*
X149238095Y-49969106D02*
X149190476Y-49873868D01*
X149190476Y-49873868D02*
X149142857Y-49826249D01*
X149142857Y-49826249D02*
X149047619Y-49778630D01*
X149047619Y-49778630D02*
X148857143Y-49731011D01*
X148857143Y-49731011D02*
X148761905Y-49683392D01*
X148761905Y-49683392D02*
X148714286Y-49635773D01*
X148714286Y-49635773D02*
X148666667Y-49540535D01*
X148666667Y-49540535D02*
X148666667Y-49445297D01*
X148666667Y-49445297D02*
X148714286Y-49350059D01*
X148714286Y-49350059D02*
X148761905Y-49302440D01*
X148761905Y-49302440D02*
X148857143Y-49254821D01*
X148857143Y-49254821D02*
X149095238Y-49254821D01*
X149095238Y-49254821D02*
X149238095Y-49302440D01*
X149571429Y-49254821D02*
X149809524Y-50254821D01*
X149809524Y-50254821D02*
X150000000Y-49540535D01*
X150000000Y-49540535D02*
X150190476Y-50254821D01*
X150190476Y-50254821D02*
X150428572Y-49254821D01*
X150714286Y-49254821D02*
X151333333Y-49254821D01*
X151333333Y-49254821D02*
X151000000Y-49635773D01*
X151000000Y-49635773D02*
X151142857Y-49635773D01*
X151142857Y-49635773D02*
X151238095Y-49683392D01*
X151238095Y-49683392D02*
X151285714Y-49731011D01*
X151285714Y-49731011D02*
X151333333Y-49826249D01*
X151333333Y-49826249D02*
X151333333Y-50064344D01*
X151333333Y-50064344D02*
X151285714Y-50159582D01*
X151285714Y-50159582D02*
X151238095Y-50207202D01*
X151238095Y-50207202D02*
X151142857Y-50254821D01*
X151142857Y-50254821D02*
X150857143Y-50254821D01*
X150857143Y-50254821D02*
X150761905Y-50207202D01*
X150761905Y-50207202D02*
X150714286Y-50159582D01*
X100207202Y-124009523D02*
X100254821Y-123866666D01*
X100254821Y-123866666D02*
X100254821Y-123628571D01*
X100254821Y-123628571D02*
X100207202Y-123533333D01*
X100207202Y-123533333D02*
X100159582Y-123485714D01*
X100159582Y-123485714D02*
X100064344Y-123438095D01*
X100064344Y-123438095D02*
X99969106Y-123438095D01*
X99969106Y-123438095D02*
X99873868Y-123485714D01*
X99873868Y-123485714D02*
X99826249Y-123533333D01*
X99826249Y-123533333D02*
X99778630Y-123628571D01*
X99778630Y-123628571D02*
X99731011Y-123819047D01*
X99731011Y-123819047D02*
X99683392Y-123914285D01*
X99683392Y-123914285D02*
X99635773Y-123961904D01*
X99635773Y-123961904D02*
X99540535Y-124009523D01*
X99540535Y-124009523D02*
X99445297Y-124009523D01*
X99445297Y-124009523D02*
X99350059Y-123961904D01*
X99350059Y-123961904D02*
X99302440Y-123914285D01*
X99302440Y-123914285D02*
X99254821Y-123819047D01*
X99254821Y-123819047D02*
X99254821Y-123580952D01*
X99254821Y-123580952D02*
X99302440Y-123438095D01*
X99254821Y-123104761D02*
X100254821Y-122866666D01*
X100254821Y-122866666D02*
X99540535Y-122676190D01*
X99540535Y-122676190D02*
X100254821Y-122485714D01*
X100254821Y-122485714D02*
X99254821Y-122247619D01*
X100254821Y-121342857D02*
X100254821Y-121914285D01*
X100254821Y-121628571D02*
X99254821Y-121628571D01*
X99254821Y-121628571D02*
X99397678Y-121723809D01*
X99397678Y-121723809D02*
X99492916Y-121819047D01*
X99492916Y-121819047D02*
X99540535Y-121914285D01*
X99254821Y-120485714D02*
X99254821Y-120676190D01*
X99254821Y-120676190D02*
X99302440Y-120771428D01*
X99302440Y-120771428D02*
X99350059Y-120819047D01*
X99350059Y-120819047D02*
X99492916Y-120914285D01*
X99492916Y-120914285D02*
X99683392Y-120961904D01*
X99683392Y-120961904D02*
X100064344Y-120961904D01*
X100064344Y-120961904D02*
X100159582Y-120914285D01*
X100159582Y-120914285D02*
X100207202Y-120866666D01*
X100207202Y-120866666D02*
X100254821Y-120771428D01*
X100254821Y-120771428D02*
X100254821Y-120580952D01*
X100254821Y-120580952D02*
X100207202Y-120485714D01*
X100207202Y-120485714D02*
X100159582Y-120438095D01*
X100159582Y-120438095D02*
X100064344Y-120390476D01*
X100064344Y-120390476D02*
X99826249Y-120390476D01*
X99826249Y-120390476D02*
X99731011Y-120438095D01*
X99731011Y-120438095D02*
X99683392Y-120485714D01*
X99683392Y-120485714D02*
X99635773Y-120580952D01*
X99635773Y-120580952D02*
X99635773Y-120771428D01*
X99635773Y-120771428D02*
X99683392Y-120866666D01*
X99683392Y-120866666D02*
X99731011Y-120914285D01*
X99731011Y-120914285D02*
X99826249Y-120961904D01*
X140609522Y-149792798D02*
X140466665Y-149745178D01*
X140466665Y-149745178D02*
X140228570Y-149745178D01*
X140228570Y-149745178D02*
X140133332Y-149792798D01*
X140133332Y-149792798D02*
X140085713Y-149840417D01*
X140085713Y-149840417D02*
X140038094Y-149935655D01*
X140038094Y-149935655D02*
X140038094Y-150030893D01*
X140038094Y-150030893D02*
X140085713Y-150126131D01*
X140085713Y-150126131D02*
X140133332Y-150173750D01*
X140133332Y-150173750D02*
X140228570Y-150221369D01*
X140228570Y-150221369D02*
X140419046Y-150268988D01*
X140419046Y-150268988D02*
X140514284Y-150316607D01*
X140514284Y-150316607D02*
X140561903Y-150364226D01*
X140561903Y-150364226D02*
X140609522Y-150459464D01*
X140609522Y-150459464D02*
X140609522Y-150554702D01*
X140609522Y-150554702D02*
X140561903Y-150649940D01*
X140561903Y-150649940D02*
X140514284Y-150697559D01*
X140514284Y-150697559D02*
X140419046Y-150745178D01*
X140419046Y-150745178D02*
X140180951Y-150745178D01*
X140180951Y-150745178D02*
X140038094Y-150697559D01*
X139704760Y-150745178D02*
X139466665Y-149745178D01*
X139466665Y-149745178D02*
X139276189Y-150459464D01*
X139276189Y-150459464D02*
X139085713Y-149745178D01*
X139085713Y-149745178D02*
X138847618Y-150745178D01*
X137942856Y-149745178D02*
X138514284Y-149745178D01*
X138228570Y-149745178D02*
X138228570Y-150745178D01*
X138228570Y-150745178D02*
X138323808Y-150602321D01*
X138323808Y-150602321D02*
X138419046Y-150507083D01*
X138419046Y-150507083D02*
X138514284Y-150459464D01*
X137085713Y-150411845D02*
X137085713Y-149745178D01*
X137323808Y-150792798D02*
X137561903Y-150078512D01*
X137561903Y-150078512D02*
X136942856Y-150078512D01*
X100207202Y-90609523D02*
X100254821Y-90466666D01*
X100254821Y-90466666D02*
X100254821Y-90228571D01*
X100254821Y-90228571D02*
X100207202Y-90133333D01*
X100207202Y-90133333D02*
X100159582Y-90085714D01*
X100159582Y-90085714D02*
X100064344Y-90038095D01*
X100064344Y-90038095D02*
X99969106Y-90038095D01*
X99969106Y-90038095D02*
X99873868Y-90085714D01*
X99873868Y-90085714D02*
X99826249Y-90133333D01*
X99826249Y-90133333D02*
X99778630Y-90228571D01*
X99778630Y-90228571D02*
X99731011Y-90419047D01*
X99731011Y-90419047D02*
X99683392Y-90514285D01*
X99683392Y-90514285D02*
X99635773Y-90561904D01*
X99635773Y-90561904D02*
X99540535Y-90609523D01*
X99540535Y-90609523D02*
X99445297Y-90609523D01*
X99445297Y-90609523D02*
X99350059Y-90561904D01*
X99350059Y-90561904D02*
X99302440Y-90514285D01*
X99302440Y-90514285D02*
X99254821Y-90419047D01*
X99254821Y-90419047D02*
X99254821Y-90180952D01*
X99254821Y-90180952D02*
X99302440Y-90038095D01*
X99254821Y-89704761D02*
X100254821Y-89466666D01*
X100254821Y-89466666D02*
X99540535Y-89276190D01*
X99540535Y-89276190D02*
X100254821Y-89085714D01*
X100254821Y-89085714D02*
X99254821Y-88847619D01*
X100254821Y-87942857D02*
X100254821Y-88514285D01*
X100254821Y-88228571D02*
X99254821Y-88228571D01*
X99254821Y-88228571D02*
X99397678Y-88323809D01*
X99397678Y-88323809D02*
X99492916Y-88419047D01*
X99492916Y-88419047D02*
X99540535Y-88514285D01*
X100254821Y-87466666D02*
X100254821Y-87276190D01*
X100254821Y-87276190D02*
X100207202Y-87180952D01*
X100207202Y-87180952D02*
X100159582Y-87133333D01*
X100159582Y-87133333D02*
X100016725Y-87038095D01*
X100016725Y-87038095D02*
X99826249Y-86990476D01*
X99826249Y-86990476D02*
X99445297Y-86990476D01*
X99445297Y-86990476D02*
X99350059Y-87038095D01*
X99350059Y-87038095D02*
X99302440Y-87085714D01*
X99302440Y-87085714D02*
X99254821Y-87180952D01*
X99254821Y-87180952D02*
X99254821Y-87371428D01*
X99254821Y-87371428D02*
X99302440Y-87466666D01*
X99302440Y-87466666D02*
X99350059Y-87514285D01*
X99350059Y-87514285D02*
X99445297Y-87561904D01*
X99445297Y-87561904D02*
X99683392Y-87561904D01*
X99683392Y-87561904D02*
X99778630Y-87514285D01*
X99778630Y-87514285D02*
X99826249Y-87466666D01*
X99826249Y-87466666D02*
X99873868Y-87371428D01*
X99873868Y-87371428D02*
X99873868Y-87180952D01*
X99873868Y-87180952D02*
X99826249Y-87085714D01*
X99826249Y-87085714D02*
X99778630Y-87038095D01*
X99778630Y-87038095D02*
X99683392Y-86990476D01*
X159866667Y-50207202D02*
X160009524Y-50254821D01*
X160009524Y-50254821D02*
X160247619Y-50254821D01*
X160247619Y-50254821D02*
X160342857Y-50207202D01*
X160342857Y-50207202D02*
X160390476Y-50159582D01*
X160390476Y-50159582D02*
X160438095Y-50064344D01*
X160438095Y-50064344D02*
X160438095Y-49969106D01*
X160438095Y-49969106D02*
X160390476Y-49873868D01*
X160390476Y-49873868D02*
X160342857Y-49826249D01*
X160342857Y-49826249D02*
X160247619Y-49778630D01*
X160247619Y-49778630D02*
X160057143Y-49731011D01*
X160057143Y-49731011D02*
X159961905Y-49683392D01*
X159961905Y-49683392D02*
X159914286Y-49635773D01*
X159914286Y-49635773D02*
X159866667Y-49540535D01*
X159866667Y-49540535D02*
X159866667Y-49445297D01*
X159866667Y-49445297D02*
X159914286Y-49350059D01*
X159914286Y-49350059D02*
X159961905Y-49302440D01*
X159961905Y-49302440D02*
X160057143Y-49254821D01*
X160057143Y-49254821D02*
X160295238Y-49254821D01*
X160295238Y-49254821D02*
X160438095Y-49302440D01*
X160771429Y-49254821D02*
X161009524Y-50254821D01*
X161009524Y-50254821D02*
X161200000Y-49540535D01*
X161200000Y-49540535D02*
X161390476Y-50254821D01*
X161390476Y-50254821D02*
X161628572Y-49254821D01*
X162438095Y-49588154D02*
X162438095Y-50254821D01*
X162200000Y-49207202D02*
X161961905Y-49921487D01*
X161961905Y-49921487D02*
X162580952Y-49921487D01*
X199792798Y-120590476D02*
X199745178Y-120733333D01*
X199745178Y-120733333D02*
X199745178Y-120971428D01*
X199745178Y-120971428D02*
X199792798Y-121066666D01*
X199792798Y-121066666D02*
X199840417Y-121114285D01*
X199840417Y-121114285D02*
X199935655Y-121161904D01*
X199935655Y-121161904D02*
X200030893Y-121161904D01*
X200030893Y-121161904D02*
X200126131Y-121114285D01*
X200126131Y-121114285D02*
X200173750Y-121066666D01*
X200173750Y-121066666D02*
X200221369Y-120971428D01*
X200221369Y-120971428D02*
X200268988Y-120780952D01*
X200268988Y-120780952D02*
X200316607Y-120685714D01*
X200316607Y-120685714D02*
X200364226Y-120638095D01*
X200364226Y-120638095D02*
X200459464Y-120590476D01*
X200459464Y-120590476D02*
X200554702Y-120590476D01*
X200554702Y-120590476D02*
X200649940Y-120638095D01*
X200649940Y-120638095D02*
X200697559Y-120685714D01*
X200697559Y-120685714D02*
X200745178Y-120780952D01*
X200745178Y-120780952D02*
X200745178Y-121019047D01*
X200745178Y-121019047D02*
X200697559Y-121161904D01*
X200745178Y-121495238D02*
X199745178Y-121733333D01*
X199745178Y-121733333D02*
X200459464Y-121923809D01*
X200459464Y-121923809D02*
X199745178Y-122114285D01*
X199745178Y-122114285D02*
X200745178Y-122352381D01*
X199745178Y-123257142D02*
X199745178Y-122685714D01*
X199745178Y-122971428D02*
X200745178Y-122971428D01*
X200745178Y-122971428D02*
X200602321Y-122876190D01*
X200602321Y-122876190D02*
X200507083Y-122780952D01*
X200507083Y-122780952D02*
X200459464Y-122685714D01*
X200745178Y-123876190D02*
X200745178Y-123971428D01*
X200745178Y-123971428D02*
X200697559Y-124066666D01*
X200697559Y-124066666D02*
X200649940Y-124114285D01*
X200649940Y-124114285D02*
X200554702Y-124161904D01*
X200554702Y-124161904D02*
X200364226Y-124209523D01*
X200364226Y-124209523D02*
X200126131Y-124209523D01*
X200126131Y-124209523D02*
X199935655Y-124161904D01*
X199935655Y-124161904D02*
X199840417Y-124114285D01*
X199840417Y-124114285D02*
X199792798Y-124066666D01*
X199792798Y-124066666D02*
X199745178Y-123971428D01*
X199745178Y-123971428D02*
X199745178Y-123876190D01*
X199745178Y-123876190D02*
X199792798Y-123780952D01*
X199792798Y-123780952D02*
X199840417Y-123733333D01*
X199840417Y-123733333D02*
X199935655Y-123685714D01*
X199935655Y-123685714D02*
X200126131Y-123638095D01*
X200126131Y-123638095D02*
X200364226Y-123638095D01*
X200364226Y-123638095D02*
X200554702Y-123685714D01*
X200554702Y-123685714D02*
X200649940Y-123733333D01*
X200649940Y-123733333D02*
X200697559Y-123780952D01*
X200697559Y-123780952D02*
X200745178Y-123876190D01*
D11*
%TO.C,SW7*%
X196123298Y-85059122D02*
X196123298Y-92540878D01*
X198307134Y-92825900D02*
X202092863Y-92825900D01*
X202092863Y-84774100D02*
X198307134Y-84774100D01*
X204276698Y-92540878D02*
X204276698Y-85059122D01*
%TO.C,SW17*%
X95723302Y-107459122D02*
X95723302Y-114940878D01*
X97907137Y-115225900D02*
X101692866Y-115225900D01*
X101692866Y-107174100D02*
X97907137Y-107174100D01*
X103876702Y-114940878D02*
X103876702Y-107459122D01*
%TO.C,SW20*%
X95723302Y-73859122D02*
X95723302Y-81340878D01*
X97907137Y-81625900D02*
X101692866Y-81625900D01*
X101692866Y-73574100D02*
X97907137Y-73574100D01*
X103876702Y-81340878D02*
X103876702Y-73859122D01*
%TO.C,SW5*%
X168374100Y-47907137D02*
X168374100Y-51692866D01*
X168659122Y-53876702D02*
X176140878Y-53876702D01*
X176140878Y-45723302D02*
X168659122Y-45723302D01*
X176425900Y-51692866D02*
X176425900Y-47907137D01*
%TO.C,SW6*%
X196123298Y-73859122D02*
X196123298Y-81340878D01*
X198307134Y-81625900D02*
X202092863Y-81625900D01*
X202092863Y-73574100D02*
X198307134Y-73574100D01*
X204276698Y-81340878D02*
X204276698Y-73859122D01*
%TO.C,SW13*%
X145974099Y-148307134D02*
X145974099Y-152092863D01*
X146259121Y-154276698D02*
X153740877Y-154276698D01*
X153740877Y-146123298D02*
X146259121Y-146123298D01*
X154025899Y-152092863D02*
X154025899Y-148307134D01*
%TO.C,SW9*%
X196123298Y-107459122D02*
X196123298Y-114940878D01*
X198307134Y-115225900D02*
X202092863Y-115225900D01*
X202092863Y-107174100D02*
X198307134Y-107174100D01*
X204276698Y-114940878D02*
X204276698Y-107459122D01*
%TO.C,SW8*%
X196123298Y-96459122D02*
X196123298Y-103940878D01*
X198307134Y-104225900D02*
X202092863Y-104225900D01*
X202092863Y-96174100D02*
X198307134Y-96174100D01*
X204276698Y-103940878D02*
X204276698Y-96459122D01*
%TO.C,SW12*%
X157174099Y-148307134D02*
X157174099Y-152092863D01*
X157459121Y-154276698D02*
X164940877Y-154276698D01*
X164940877Y-146123298D02*
X157459121Y-146123298D01*
X165225899Y-152092863D02*
X165225899Y-148307134D01*
%TO.C,SW1*%
X123574100Y-47907137D02*
X123574100Y-51692866D01*
X123859122Y-53876702D02*
X131340878Y-53876702D01*
X131340878Y-45723302D02*
X123859122Y-45723302D01*
X131625900Y-51692866D02*
X131625900Y-47907137D01*
%TO.C,SW18*%
X95723302Y-96259122D02*
X95723302Y-103740878D01*
X97907137Y-104025900D02*
X101692866Y-104025900D01*
X101692866Y-95974100D02*
X97907137Y-95974100D01*
X103876702Y-103740878D02*
X103876702Y-96259122D01*
%TO.C,SW15*%
X123674099Y-148307134D02*
X123674099Y-152092863D01*
X123959121Y-154276698D02*
X131440877Y-154276698D01*
X131440877Y-146123298D02*
X123959121Y-146123298D01*
X131725899Y-152092863D02*
X131725899Y-148307134D01*
%TO.C,SW2*%
X134774100Y-47907137D02*
X134774100Y-51692866D01*
X135059122Y-53876702D02*
X142540878Y-53876702D01*
X142540878Y-45723302D02*
X135059122Y-45723302D01*
X142825900Y-51692866D02*
X142825900Y-47907137D01*
%TO.C,SW3*%
X145974100Y-47907137D02*
X145974100Y-51692866D01*
X146259122Y-53876702D02*
X153740878Y-53876702D01*
X153740878Y-45723302D02*
X146259122Y-45723302D01*
X154025900Y-51692866D02*
X154025900Y-47907137D01*
%TO.C,SW11*%
X168374099Y-148307134D02*
X168374099Y-152092863D01*
X168659121Y-154276698D02*
X176140877Y-154276698D01*
X176140877Y-146123298D02*
X168659121Y-146123298D01*
X176425899Y-152092863D02*
X176425899Y-148307134D01*
%TO.C,SW16*%
X95723302Y-118459122D02*
X95723302Y-125940878D01*
X97907137Y-126225900D02*
X101692866Y-126225900D01*
X101692866Y-118174100D02*
X97907137Y-118174100D01*
X103876702Y-125940878D02*
X103876702Y-118459122D01*
%TO.C,SW14*%
X134774099Y-148307134D02*
X134774099Y-152092863D01*
X135059121Y-154276698D02*
X142540877Y-154276698D01*
X142540877Y-146123298D02*
X135059121Y-146123298D01*
X142825899Y-152092863D02*
X142825899Y-148307134D01*
%TO.C,SW19*%
X95723302Y-85059122D02*
X95723302Y-92540878D01*
X97907137Y-92825900D02*
X101692866Y-92825900D01*
X101692866Y-84774100D02*
X97907137Y-84774100D01*
X103876702Y-92540878D02*
X103876702Y-85059122D01*
%TO.C,SW4*%
X157174100Y-47907137D02*
X157174100Y-51692866D01*
X157459122Y-53876702D02*
X164940878Y-53876702D01*
X164940878Y-45723302D02*
X157459122Y-45723302D01*
X165225900Y-51692866D02*
X165225900Y-47907137D01*
%TO.C,SW10*%
X196123298Y-118659122D02*
X196123298Y-126140878D01*
X198307134Y-126425900D02*
X202092863Y-126425900D01*
X202092863Y-118374100D02*
X198307134Y-118374100D01*
X204276698Y-126140878D02*
X204276698Y-118659122D01*
%TD*%
M02*
