%TF.GenerationSoftware,KiCad,Pcbnew,8.0.8*%
%TF.CreationDate,2025-05-19T18:04:48-07:00*%
%TF.ProjectId,ddi,6464692e-6b69-4636-9164-5f7063625858,rev?*%
%TF.SameCoordinates,Original*%
%TF.FileFunction,Soldermask,Top*%
%TF.FilePolarity,Negative*%
%FSLAX46Y46*%
G04 Gerber Fmt 4.6, Leading zero omitted, Abs format (unit mm)*
G04 Created by KiCad (PCBNEW 8.0.8) date 2025-05-19 18:04:48*
%MOMM*%
%LPD*%
G01*
G04 APERTURE LIST*
G04 Aperture macros list*
%AMRoundRect*
0 Rectangle with rounded corners*
0 $1 Rounding radius*
0 $2 $3 $4 $5 $6 $7 $8 $9 X,Y pos of 4 corners*
0 Add a 4 corners polygon primitive as box body*
4,1,4,$2,$3,$4,$5,$6,$7,$8,$9,$2,$3,0*
0 Add four circle primitives for the rounded corners*
1,1,$1+$1,$2,$3*
1,1,$1+$1,$4,$5*
1,1,$1+$1,$6,$7*
1,1,$1+$1,$8,$9*
0 Add four rect primitives between the rounded corners*
20,1,$1+$1,$2,$3,$4,$5,0*
20,1,$1+$1,$4,$5,$6,$7,0*
20,1,$1+$1,$6,$7,$8,$9,0*
20,1,$1+$1,$8,$9,$2,$3,0*%
G04 Aperture macros list end*
%ADD10C,1.549400*%
%ADD11RoundRect,0.102000X-0.679000X0.679000X-0.679000X-0.679000X0.679000X-0.679000X0.679000X0.679000X0*%
%ADD12C,1.562000*%
G04 APERTURE END LIST*
D10*
%TO.C,SW17*%
X171300000Y-62699997D03*
X171300000Y-68700000D03*
X179299999Y-62699997D03*
X179299999Y-68700000D03*
%TD*%
%TO.C,SW1*%
X126600000Y-62699997D03*
X126600000Y-68700000D03*
X134599999Y-62699997D03*
X134599999Y-68700000D03*
%TD*%
%TO.C,SW11*%
X202900003Y-110300000D03*
X196900000Y-110300000D03*
X202900003Y-118299999D03*
X196900000Y-118299999D03*
%TD*%
%TO.C,SW15*%
X101199997Y-107199999D03*
X107200000Y-107199999D03*
X101199997Y-99200000D03*
X107200000Y-99200000D03*
%TD*%
%TO.C,SW8*%
X168099999Y-164300003D03*
X168099999Y-158300000D03*
X160100000Y-164300003D03*
X160100000Y-158300000D03*
%TD*%
%TO.C,SW12*%
X156899999Y-164300003D03*
X156899999Y-158300000D03*
X148900000Y-164300003D03*
X148900000Y-158300000D03*
%TD*%
%TO.C,SW14*%
X202900003Y-121500000D03*
X196900000Y-121500000D03*
X202900003Y-129499999D03*
X196900000Y-129499999D03*
%TD*%
%TO.C,SW10*%
X148900000Y-62699997D03*
X148900000Y-68700000D03*
X156899999Y-62699997D03*
X156899999Y-68700000D03*
%TD*%
%TO.C,SW6*%
X202900003Y-99200000D03*
X196900000Y-99200000D03*
X202900003Y-107199999D03*
X196900000Y-107199999D03*
%TD*%
%TO.C,SW5*%
X137700000Y-62699997D03*
X137700000Y-68700000D03*
X145699999Y-62699997D03*
X145699999Y-68700000D03*
%TD*%
%TO.C,SW2*%
X202900003Y-88000000D03*
X196900000Y-88000000D03*
X202900003Y-95999999D03*
X196900000Y-95999999D03*
%TD*%
%TO.C,SW9*%
X101199997Y-118300000D03*
X107200000Y-118300000D03*
X101199997Y-110300001D03*
X107200000Y-110300001D03*
%TD*%
%TO.C,SW16*%
X145699999Y-164300003D03*
X145699999Y-158300000D03*
X137700000Y-164300003D03*
X137700000Y-158300000D03*
%TD*%
%TO.C,SW7*%
X101199997Y-129499999D03*
X107200000Y-129499999D03*
X101199997Y-121500000D03*
X107200000Y-121500000D03*
%TD*%
%TO.C,SW13*%
X160100000Y-62699997D03*
X160100000Y-68700000D03*
X168099999Y-62699997D03*
X168099999Y-68700000D03*
%TD*%
%TO.C,SW20*%
X134599999Y-164300003D03*
X134599999Y-158300000D03*
X126600000Y-164300003D03*
X126600000Y-158300000D03*
%TD*%
%TO.C,SW18*%
X202900003Y-132700000D03*
X196900000Y-132700000D03*
X202900003Y-140699999D03*
X196900000Y-140699999D03*
%TD*%
%TO.C,SW4*%
X179299999Y-164300003D03*
X179299999Y-158300000D03*
X171300000Y-164300003D03*
X171300000Y-158300000D03*
%TD*%
%TO.C,SW19*%
X101199997Y-95799999D03*
X107200000Y-95799999D03*
X101199997Y-87800000D03*
X107200000Y-87800000D03*
%TD*%
%TO.C,SW3*%
X101199997Y-140699999D03*
X107200000Y-140699999D03*
X101199997Y-132700000D03*
X107200000Y-132700000D03*
%TD*%
D11*
%TO.C,U1*%
X144400000Y-83200000D03*
D12*
X146940000Y-83200000D03*
X149480000Y-83200000D03*
X152020000Y-83200000D03*
X154560000Y-83200000D03*
X157100000Y-83200000D03*
X159640000Y-83200000D03*
X159640000Y-98440000D03*
X157100000Y-98440000D03*
X154560000Y-98440000D03*
X152020000Y-98440000D03*
X149480000Y-98440000D03*
X146940000Y-98440000D03*
X144400000Y-98440000D03*
%TD*%
M02*
