%TF.GenerationSoftware,KiCad,Pcbnew,8.0.8*%
%TF.CreationDate,2025-05-19T18:04:48-07:00*%
%TF.ProjectId,ddi,6464692e-6b69-4636-9164-5f7063625858,rev?*%
%TF.SameCoordinates,Original*%
%TF.FileFunction,Copper,L1,Top*%
%TF.FilePolarity,Positive*%
%FSLAX46Y46*%
G04 Gerber Fmt 4.6, Leading zero omitted, Abs format (unit mm)*
G04 Created by KiCad (PCBNEW 8.0.8) date 2025-05-19 18:04:48*
%MOMM*%
%LPD*%
G01*
G04 APERTURE LIST*
%TA.AperFunction,ComponentPad*%
%ADD10C,1.549400*%
%TD*%
%TA.AperFunction,ComponentPad*%
%ADD11R,1.358000X1.358000*%
%TD*%
%TA.AperFunction,ComponentPad*%
%ADD12C,1.358000*%
%TD*%
%TA.AperFunction,ViaPad*%
%ADD13C,0.600000*%
%TD*%
%TA.AperFunction,Conductor*%
%ADD14C,0.500000*%
%TD*%
%TA.AperFunction,Conductor*%
%ADD15C,0.250000*%
%TD*%
G04 APERTURE END LIST*
D10*
%TO.P,SW17,1,a*%
%TO.N,/B1*%
X171300000Y-62699997D03*
%TO.P,SW17,2,b*%
X171300000Y-68700000D03*
%TO.P,SW17,3,c*%
%TO.N,/X5*%
X179299999Y-62699997D03*
%TO.P,SW17,4,d*%
X179299999Y-68700000D03*
%TD*%
%TO.P,SW1,1,a*%
%TO.N,/B1*%
X126600000Y-62699997D03*
%TO.P,SW1,2,b*%
X126600000Y-68700000D03*
%TO.P,SW1,3,c*%
%TO.N,/X1*%
X134599999Y-62699997D03*
%TO.P,SW1,4,d*%
X134599999Y-68700000D03*
%TD*%
%TO.P,SW11,1,a*%
%TO.N,/B2*%
X202900003Y-110300000D03*
%TO.P,SW11,2,b*%
X196900000Y-110300000D03*
%TO.P,SW11,3,c*%
%TO.N,/X3*%
X202900003Y-118299999D03*
%TO.P,SW11,4,d*%
X196900000Y-118299999D03*
%TD*%
%TO.P,SW15,1,a*%
%TO.N,/X4*%
X101199997Y-107199999D03*
%TO.P,SW15,2,b*%
X107200000Y-107199999D03*
%TO.P,SW15,3,c*%
%TO.N,/B4*%
X101199997Y-99200000D03*
%TO.P,SW15,4,d*%
X107200000Y-99200000D03*
%TD*%
%TO.P,SW8,1,a*%
%TO.N,/X2*%
X168099999Y-164300003D03*
%TO.P,SW8,2,b*%
X168099999Y-158300000D03*
%TO.P,SW8,3,c*%
%TO.N,/B3*%
X160100000Y-164300003D03*
%TO.P,SW8,4,d*%
X160100000Y-158300000D03*
%TD*%
%TO.P,SW12,1,a*%
%TO.N,/X3*%
X156899999Y-164300003D03*
%TO.P,SW12,2,b*%
X156899999Y-158300000D03*
%TO.P,SW12,3,c*%
%TO.N,/B3*%
X148900000Y-164300003D03*
%TO.P,SW12,4,d*%
X148900000Y-158300000D03*
%TD*%
%TO.P,SW14,1,a*%
%TO.N,/B2*%
X202900003Y-121500000D03*
%TO.P,SW14,2,b*%
X196900000Y-121500000D03*
%TO.P,SW14,3,c*%
%TO.N,/X4*%
X202900003Y-129499999D03*
%TO.P,SW14,4,d*%
X196900000Y-129499999D03*
%TD*%
%TO.P,SW10,1,a*%
%TO.N,/B1*%
X148900000Y-62699997D03*
%TO.P,SW10,2,b*%
X148900000Y-68700000D03*
%TO.P,SW10,3,c*%
%TO.N,/X3*%
X156899999Y-62699997D03*
%TO.P,SW10,4,d*%
X156899999Y-68700000D03*
%TD*%
%TO.P,SW6,1,a*%
%TO.N,/B2*%
X202900003Y-99200000D03*
%TO.P,SW6,2,b*%
X196900000Y-99200000D03*
%TO.P,SW6,3,c*%
%TO.N,/X2*%
X202900003Y-107199999D03*
%TO.P,SW6,4,d*%
X196900000Y-107199999D03*
%TD*%
%TO.P,SW5,1,a*%
%TO.N,/B1*%
X137700000Y-62699997D03*
%TO.P,SW5,2,b*%
X137700000Y-68700000D03*
%TO.P,SW5,3,c*%
%TO.N,/X2*%
X145699999Y-62699997D03*
%TO.P,SW5,4,d*%
X145699999Y-68700000D03*
%TD*%
%TO.P,SW2,1,a*%
%TO.N,/B2*%
X202900003Y-88000000D03*
%TO.P,SW2,2,b*%
X196900000Y-88000000D03*
%TO.P,SW2,3,c*%
%TO.N,/X1*%
X202900003Y-95999999D03*
%TO.P,SW2,4,d*%
X196900000Y-95999999D03*
%TD*%
%TO.P,SW9,1,a*%
%TO.N,/X3*%
X101199997Y-118300000D03*
%TO.P,SW9,2,b*%
X107200000Y-118300000D03*
%TO.P,SW9,3,c*%
%TO.N,/B4*%
X101199997Y-110300001D03*
%TO.P,SW9,4,d*%
X107200000Y-110300001D03*
%TD*%
%TO.P,SW16,1,a*%
%TO.N,/X4*%
X145699999Y-164300003D03*
%TO.P,SW16,2,b*%
X145699999Y-158300000D03*
%TO.P,SW16,3,c*%
%TO.N,/B3*%
X137700000Y-164300003D03*
%TO.P,SW16,4,d*%
X137700000Y-158300000D03*
%TD*%
%TO.P,SW7,1,a*%
%TO.N,/X2*%
X101199997Y-129499999D03*
%TO.P,SW7,2,b*%
X107200000Y-129499999D03*
%TO.P,SW7,3,c*%
%TO.N,/B4*%
X101199997Y-121500000D03*
%TO.P,SW7,4,d*%
X107200000Y-121500000D03*
%TD*%
%TO.P,SW13,1,a*%
%TO.N,/B1*%
X160100000Y-62699997D03*
%TO.P,SW13,2,b*%
X160100000Y-68700000D03*
%TO.P,SW13,3,c*%
%TO.N,/X4*%
X168099999Y-62699997D03*
%TO.P,SW13,4,d*%
X168099999Y-68700000D03*
%TD*%
%TO.P,SW20,1,a*%
%TO.N,/X5*%
X134599999Y-164300003D03*
%TO.P,SW20,2,b*%
X134599999Y-158300000D03*
%TO.P,SW20,3,c*%
%TO.N,/B3*%
X126600000Y-164300003D03*
%TO.P,SW20,4,d*%
X126600000Y-158300000D03*
%TD*%
%TO.P,SW18,1,a*%
%TO.N,/B2*%
X202900003Y-132700000D03*
%TO.P,SW18,2,b*%
X196900000Y-132700000D03*
%TO.P,SW18,3,c*%
%TO.N,/X5*%
X202900003Y-140699999D03*
%TO.P,SW18,4,d*%
X196900000Y-140699999D03*
%TD*%
%TO.P,SW4,1,a*%
%TO.N,/X1*%
X179299999Y-164300003D03*
%TO.P,SW4,2,b*%
X179299999Y-158300000D03*
%TO.P,SW4,3,c*%
%TO.N,/B3*%
X171300000Y-164300003D03*
%TO.P,SW4,4,d*%
X171300000Y-158300000D03*
%TD*%
%TO.P,SW19,1,a*%
%TO.N,/X5*%
X101199997Y-95799999D03*
%TO.P,SW19,2,b*%
X107200000Y-95799999D03*
%TO.P,SW19,3,c*%
%TO.N,/B4*%
X101199997Y-87800000D03*
%TO.P,SW19,4,d*%
X107200000Y-87800000D03*
%TD*%
%TO.P,SW3,1,a*%
%TO.N,/X1*%
X101199997Y-140699999D03*
%TO.P,SW3,2,b*%
X107200000Y-140699999D03*
%TO.P,SW3,3,c*%
%TO.N,/B4*%
X101199997Y-132700000D03*
%TO.P,SW3,4,d*%
X107200000Y-132700000D03*
%TD*%
D11*
%TO.P,U1,1,D0*%
%TO.N,/B1*%
X144400000Y-83200000D03*
D12*
%TO.P,U1,2,D1*%
%TO.N,/B2*%
X146940000Y-83200000D03*
%TO.P,U1,3,D2*%
%TO.N,/B3*%
X149480000Y-83200000D03*
%TO.P,U1,4,D3*%
%TO.N,/B4*%
X152020000Y-83200000D03*
%TO.P,U1,5,D4*%
%TO.N,unconnected-(U1-D4-Pad5)*%
X154560000Y-83200000D03*
%TO.P,U1,6,D5*%
%TO.N,unconnected-(U1-D5-Pad6)*%
X157100000Y-83200000D03*
%TO.P,U1,7,TX_D6*%
%TO.N,/X1*%
X159640000Y-83200000D03*
%TO.P,U1,8,RX_D7*%
%TO.N,/X2*%
X159640000Y-98440000D03*
%TO.P,U1,9,D8*%
%TO.N,/X3*%
X157100000Y-98440000D03*
%TO.P,U1,10,D9*%
%TO.N,/X4*%
X154560000Y-98440000D03*
%TO.P,U1,11,D10*%
%TO.N,/X5*%
X152020000Y-98440000D03*
%TO.P,U1,12,VCC_3V3*%
%TO.N,unconnected-(U1-VCC_3V3-Pad12)*%
X149480000Y-98440000D03*
%TO.P,U1,13,GND*%
%TO.N,unconnected-(U1-GND-Pad13)*%
X146940000Y-98440000D03*
%TO.P,U1,14,VUSB*%
%TO.N,unconnected-(U1-VUSB-Pad14)*%
X144400000Y-98440000D03*
%TD*%
D13*
%TO.N,/X4*%
X147200000Y-106300000D03*
%TO.N,/X2*%
X137400000Y-106200000D03*
X137200000Y-75100000D03*
X164000000Y-110700000D03*
%TO.N,/X1*%
X176750000Y-150750000D03*
X169300000Y-128500000D03*
X180200000Y-95100000D03*
X132450000Y-72250000D03*
X116200000Y-133100000D03*
X118200000Y-127900000D03*
%TD*%
D14*
%TO.N,/X5*%
X179299999Y-62699997D02*
X179299999Y-68700000D01*
D15*
%TO.N,/B2*%
X196900000Y-88000000D02*
X202900003Y-88000000D01*
%TO.N,/B1*%
X171300000Y-68700000D02*
X171300000Y-62699997D01*
D14*
%TO.N,/X4*%
X168099999Y-65100000D02*
X168099999Y-65800001D01*
X168099999Y-65100000D02*
X168099999Y-68700000D01*
X168099999Y-62699997D02*
X168099999Y-65100000D01*
D15*
%TO.N,/X3*%
X156899999Y-64400000D02*
X156899999Y-66000001D01*
X156899999Y-64400000D02*
X156899999Y-68700000D01*
X156899999Y-62699997D02*
X156899999Y-64400000D01*
D14*
%TO.N,/X5*%
X103100000Y-95799999D02*
X103700001Y-95799999D01*
X103100000Y-95799999D02*
X107200000Y-95799999D01*
X101199997Y-95799999D02*
X103100000Y-95799999D01*
%TO.N,/X4*%
X103300000Y-107199999D02*
X104600001Y-107199999D01*
X101199997Y-107199999D02*
X103300000Y-107199999D01*
X103300000Y-107199999D02*
X107200000Y-107199999D01*
%TO.N,/X3*%
X103700000Y-118300000D02*
X104700000Y-118300000D01*
X103700000Y-118300000D02*
X107200000Y-118300000D01*
X101199997Y-118300000D02*
X103700000Y-118300000D01*
X156899999Y-162100000D02*
X156899999Y-161299999D01*
X156899999Y-162100000D02*
X156899999Y-158300000D01*
X156899999Y-164300003D02*
X156899999Y-162100000D01*
%TO.N,/X4*%
X145699999Y-161600000D02*
X145699999Y-161399999D01*
X145699999Y-161600000D02*
X145699999Y-158300000D01*
X145699999Y-164300003D02*
X145699999Y-161600000D01*
%TO.N,/X5*%
X134599999Y-161700000D02*
X134599999Y-161399999D01*
X134599999Y-164300003D02*
X134599999Y-161700000D01*
X134599999Y-161700000D02*
X134599999Y-158300000D01*
X199700000Y-140699999D02*
X199700000Y-140600000D01*
X199700000Y-140699999D02*
X196900000Y-140699999D01*
X202900003Y-140699999D02*
X199700000Y-140699999D01*
%TO.N,/X4*%
X199700000Y-129499999D02*
X196900000Y-129499999D01*
X199700000Y-129499999D02*
X199699999Y-129499999D01*
X202900003Y-129499999D02*
X199700000Y-129499999D01*
%TO.N,/X3*%
X199700000Y-118299999D02*
X199599999Y-118299999D01*
X199700000Y-118299999D02*
X196900000Y-118299999D01*
X202900003Y-118299999D02*
X199700000Y-118299999D01*
%TO.N,/X5*%
X152000000Y-100900000D02*
X151000000Y-101900000D01*
X152020000Y-100880000D02*
X152000000Y-100900000D01*
X152020000Y-98440000D02*
X152020000Y-100880000D01*
%TO.N,/X4*%
X154560000Y-100960000D02*
X153420000Y-102100000D01*
X154560000Y-98440000D02*
X154560000Y-100960000D01*
%TO.N,/X3*%
X157100000Y-101900000D02*
X155500000Y-103500000D01*
X157100000Y-98440000D02*
X157100000Y-101900000D01*
%TO.N,/X2*%
X137400000Y-106200000D02*
X137200000Y-106000000D01*
X143450000Y-66750000D02*
X143400000Y-66800000D01*
X137200000Y-106000000D02*
X137200000Y-75100000D01*
X138400000Y-107200000D02*
X137400000Y-106200000D01*
X156100000Y-107200000D02*
X138400000Y-107200000D01*
X159600000Y-103700000D02*
X156100000Y-107200000D01*
X159600000Y-103700000D02*
X159600000Y-109100000D01*
X159600000Y-98480000D02*
X159600000Y-103700000D01*
X145699999Y-65300000D02*
X145000000Y-65300000D01*
X144900000Y-65300000D02*
X143450000Y-66750000D01*
X145699999Y-65300000D02*
X145699999Y-68700000D01*
X145699999Y-62699997D02*
X145699999Y-65300000D01*
X168099999Y-161800000D02*
X168099999Y-158300000D01*
X168099999Y-164300003D02*
X168099999Y-161800000D01*
X200100000Y-107199999D02*
X202900003Y-107199999D01*
X196900000Y-107199999D02*
X200100000Y-107199999D01*
X161200000Y-110700000D02*
X164000000Y-110700000D01*
X159600000Y-109100000D02*
X161200000Y-110700000D01*
X159640000Y-98440000D02*
X159600000Y-98480000D01*
%TO.N,/X1*%
X176750000Y-150750000D02*
X176700000Y-150700000D01*
X179299999Y-153299999D02*
X176750000Y-150750000D01*
X179299999Y-158300000D02*
X179299999Y-153299999D01*
X179299999Y-164300003D02*
X179299999Y-158300000D01*
X164800000Y-124000000D02*
X169300000Y-128500000D01*
X164800000Y-113100000D02*
X164800000Y-124000000D01*
X200900000Y-95999999D02*
X200899999Y-95999999D01*
X200900000Y-95999999D02*
X196900000Y-95999999D01*
X202900003Y-95999999D02*
X200900000Y-95999999D01*
X174800000Y-95400000D02*
X175100000Y-95100000D01*
X172200000Y-97900000D02*
X174700000Y-95400000D01*
X175100000Y-95100000D02*
X180200000Y-95100000D01*
X172200000Y-97900000D02*
X172200000Y-105700000D01*
X172200000Y-81100000D02*
X172200000Y-97900000D01*
X174700000Y-95400000D02*
X174800000Y-95400000D01*
X132450000Y-72250000D02*
X132400000Y-72200000D01*
X135100000Y-111100000D02*
X135100000Y-74900000D01*
X135100000Y-74900000D02*
X132450000Y-72250000D01*
X133000000Y-113100000D02*
X135000000Y-111100000D01*
X135000000Y-111100000D02*
X135100000Y-111100000D01*
X134599999Y-65600000D02*
X134599999Y-68700000D01*
X134599999Y-62699997D02*
X134599999Y-65600000D01*
X116200000Y-135700000D02*
X116200000Y-133100000D01*
X111200000Y-140700000D02*
X116200000Y-135700000D01*
X133000000Y-113100000D02*
X118200000Y-127900000D01*
X164800000Y-113100000D02*
X133000000Y-113100000D01*
X172200000Y-105700000D02*
X164800000Y-113100000D01*
X160900000Y-80000000D02*
X171100000Y-80000000D01*
X159600000Y-81300000D02*
X160900000Y-80000000D01*
X171100000Y-80000000D02*
X172200000Y-81100000D01*
X159640000Y-81340000D02*
X159600000Y-81300000D01*
X159640000Y-83200000D02*
X159640000Y-81340000D01*
X111199999Y-140699999D02*
X111200000Y-140700000D01*
X107200000Y-140699999D02*
X111199999Y-140699999D01*
X101199997Y-140699999D02*
X107200000Y-140699999D01*
D15*
%TO.N,/B1*%
X160500000Y-71000000D02*
X170500000Y-71000000D01*
X144400000Y-71000000D02*
X148600000Y-71000000D01*
X171000000Y-70500000D02*
X171100000Y-70500000D01*
X126600000Y-69600000D02*
X128000000Y-71000000D01*
X148900000Y-62699997D02*
X148900000Y-68700000D01*
X148600000Y-71000000D02*
X160500000Y-71000000D01*
X137500000Y-71000000D02*
X144400000Y-71000000D01*
X148900000Y-70700000D02*
X148600000Y-71000000D01*
X171100000Y-70500000D02*
X171300000Y-70300000D01*
X126600000Y-68700000D02*
X126600000Y-69600000D01*
X144400000Y-71000000D02*
X144400000Y-83200000D01*
X170500000Y-71000000D02*
X171000000Y-70500000D01*
X148900000Y-68700000D02*
X148900000Y-70700000D01*
X126600000Y-62699997D02*
X126600000Y-68700000D01*
X137700000Y-68700000D02*
X137700000Y-70800000D01*
X160100000Y-70600000D02*
X160500000Y-71000000D01*
X160100000Y-68700000D02*
X160100000Y-70600000D01*
X137700000Y-70800000D02*
X137500000Y-71000000D01*
X171300000Y-70300000D02*
X171300000Y-68700000D01*
X137700000Y-62699997D02*
X137700000Y-68700000D01*
X128000000Y-71000000D02*
X137500000Y-71000000D01*
X160100000Y-62699997D02*
X160100000Y-68700000D01*
%TO.N,/B2*%
X202900003Y-110300000D02*
X196900000Y-110300000D01*
X196900000Y-99200000D02*
X195200000Y-99200000D01*
X196900000Y-88000000D02*
X194900000Y-88000000D01*
X202900003Y-121500000D02*
X196900000Y-121500000D01*
X194300000Y-109700000D02*
X194300000Y-116300000D01*
X194300000Y-100100000D02*
X194300000Y-109700000D01*
X148280000Y-73000000D02*
X168700000Y-73000000D01*
X194900000Y-88000000D02*
X194300000Y-88600000D01*
X202900003Y-132700000D02*
X196900000Y-132700000D01*
X183500000Y-73000000D02*
X194200000Y-83700000D01*
X168700000Y-73000000D02*
X168800000Y-73100000D01*
X194200000Y-83700000D02*
X194200000Y-88500000D01*
X194300000Y-116300000D02*
X194300000Y-122200000D01*
X196900000Y-121500000D02*
X195100000Y-121500000D01*
X194300000Y-88600000D02*
X194300000Y-100100000D01*
X202900003Y-99200000D02*
X196900000Y-99200000D01*
X195300000Y-132700000D02*
X194300000Y-131700000D01*
X194200000Y-88500000D02*
X194300000Y-88600000D01*
X195100000Y-110300000D02*
X194500000Y-109700000D01*
X146940000Y-83200000D02*
X146940000Y-74340000D01*
X194400000Y-122200000D02*
X194300000Y-122200000D01*
X195100000Y-121500000D02*
X194400000Y-122200000D01*
X194300000Y-122200000D02*
X194300000Y-131700000D01*
X195200000Y-99200000D02*
X194300000Y-100100000D01*
X196900000Y-110300000D02*
X195100000Y-110300000D01*
X196900000Y-132700000D02*
X195300000Y-132700000D01*
X168900000Y-73000000D02*
X183500000Y-73000000D01*
X194500000Y-109700000D02*
X194300000Y-109700000D01*
X146940000Y-74340000D02*
X148280000Y-73000000D01*
X168800000Y-73100000D02*
X168900000Y-73000000D01*
D14*
%TO.N,/B4*%
X107200000Y-121500000D02*
X111400000Y-121500000D01*
X107200000Y-87800000D02*
X111300000Y-87800000D01*
X152000000Y-80500000D02*
X153900000Y-78600000D01*
X152020000Y-80520000D02*
X152000000Y-80500000D01*
X112300000Y-99200000D02*
X113300000Y-100200000D01*
X180500000Y-130200000D02*
X115400000Y-130200000D01*
X107200000Y-99200000D02*
X112300000Y-99200000D01*
X111400000Y-87700000D02*
X113200000Y-89500000D01*
X113200000Y-89500000D02*
X113300000Y-89500000D01*
X113300000Y-128300000D02*
X113300000Y-130800000D01*
X113300000Y-89500000D02*
X113300000Y-100200000D01*
X101199997Y-99200000D02*
X107200000Y-99200000D01*
X113300000Y-100200000D02*
X113300000Y-108500000D01*
X153900000Y-78600000D02*
X180600000Y-78600000D01*
X111700000Y-121100000D02*
X113300000Y-119500000D01*
X101199997Y-132700000D02*
X107200000Y-132700000D01*
X111400000Y-121500000D02*
X111700000Y-121200000D01*
X111300000Y-87800000D02*
X111400000Y-87700000D01*
X182200000Y-128500000D02*
X180500000Y-130200000D01*
X113300000Y-130800000D02*
X111400000Y-132700000D01*
X111700000Y-121200000D02*
X111700000Y-121100000D01*
X101199997Y-87800000D02*
X107200000Y-87800000D01*
X115400000Y-130200000D02*
X115300000Y-130300000D01*
X111400000Y-132700000D02*
X107200000Y-132700000D01*
X180600000Y-78600000D02*
X182200000Y-80200000D01*
X113300000Y-108500000D02*
X113300000Y-119500000D01*
X111499999Y-110300001D02*
X113300000Y-108500000D01*
X113300000Y-119500000D02*
X113300000Y-128300000D01*
X115300000Y-130300000D02*
X113300000Y-128300000D01*
X101199997Y-110300001D02*
X107200000Y-110300001D01*
X107200000Y-110300001D02*
X111499999Y-110300001D01*
X101199997Y-121500000D02*
X107200000Y-121500000D01*
X182200000Y-80200000D02*
X182200000Y-128500000D01*
X152020000Y-83200000D02*
X152020000Y-80520000D01*
D15*
%TO.N,/B3*%
X126600000Y-164300003D02*
X126600000Y-158300000D01*
X183800000Y-76700000D02*
X183800000Y-76500000D01*
X151200000Y-152400000D02*
X139800000Y-152400000D01*
X171300000Y-158300000D02*
X171300000Y-154300000D01*
X149800000Y-78200000D02*
X149500000Y-78200000D01*
X160100000Y-164300003D02*
X160100000Y-158300000D01*
X160100000Y-153900000D02*
X161600000Y-152400000D01*
X137700000Y-164300003D02*
X137700000Y-158300000D01*
X149480000Y-78520000D02*
X149480000Y-83200000D01*
X183322399Y-76977601D02*
X151177601Y-76977601D01*
X169500000Y-152500000D02*
X169500000Y-152400000D01*
X169500000Y-152400000D02*
X161600000Y-152400000D01*
X151200000Y-152500000D02*
X151200000Y-152400000D01*
X148900000Y-164300003D02*
X148900000Y-158300000D01*
X128500000Y-152200000D02*
X126600000Y-154100000D01*
X169500000Y-152400000D02*
X185200000Y-136700000D01*
X148900000Y-154800000D02*
X151200000Y-152500000D01*
X137700000Y-154700000D02*
X137600000Y-154600000D01*
X137600000Y-154600000D02*
X139800000Y-152400000D01*
X126600000Y-154100000D02*
X126600000Y-158300000D01*
X185500000Y-78400000D02*
X183800000Y-76700000D01*
X128700000Y-152400000D02*
X128500000Y-152200000D01*
X185500000Y-136700000D02*
X185500000Y-78400000D01*
X161600000Y-152400000D02*
X151200000Y-152400000D01*
X139800000Y-152400000D02*
X128700000Y-152400000D01*
X185200000Y-136700000D02*
X185500000Y-136700000D01*
X171300000Y-154300000D02*
X169500000Y-152500000D01*
X183800000Y-76500000D02*
X183322399Y-76977601D01*
X151100000Y-76900000D02*
X149800000Y-78200000D01*
X148900000Y-158300000D02*
X148900000Y-154800000D01*
X149500000Y-78200000D02*
X149500000Y-78500000D01*
X171300000Y-164300003D02*
X171300000Y-158300000D01*
X160100000Y-158300000D02*
X160100000Y-153900000D01*
X151177601Y-76977601D02*
X151100000Y-76900000D01*
X149500000Y-78500000D02*
X149480000Y-78520000D01*
X137700000Y-158300000D02*
X137700000Y-154700000D01*
%TO.N,/X3*%
X156899999Y-68700000D02*
X156899999Y-70150001D01*
%TD*%
M02*
